<svg xmlns="http://www.w3.org/2000/svg" fill="none" viewBox="0 0 180 309"><path fill="#FEAFE8" stroke="#000" d="M162.6 87.71v.02h0c-2.34 17.6-2.04 29.86-.4 39.49 1.63 9.62 4.6 16.57 7.56 23.52v.01c3.83 8.96 7.66 17.94 8.73 32.77v.02c1.2 10.43.55 21.3-2.24 32.24-7.25 23.56-13.73 40.39-21 59.23-3.9 10.13-8.03 20.84-12.62 33.49H36.93A1776.3 1776.3 0 0024.3 275c-7.26-18.83-13.74-35.66-20.99-59.22a89.14 89.14 0 01-2.24-32.24v-.02c1.07-14.83 4.9-23.8 8.73-32.77v-.01c2.97-6.95 5.93-13.9 7.57-23.52 1.63-9.63 1.93-21.89-.41-39.48v-.03a74 74 0 11145.65 0z"/><path fill="#fff" d="M168 193.17v2.12a19.7 19.7 0 01-19.7 19.7 8.3 8.3 0 01-8.3-8.29v-25.53a8 8 0 018-8c2.4 0 4.7.43 6.84 1.2a36.3 36.3 0 00-3.78-1.2c-.92-4.6-.55-12.17 8.3-11.06 10.9 1.36 5.56 18.84 3.21 17.36a19.93 19.93 0 015.43 13.7z"/><path stroke="#000" d="M140 187.34v-6.17a8 8 0 018-8 20 20 0 0120 20v2.12a19.7 19.7 0 01-19.7 19.7 8.3 8.3 0 01-8.3-8.29v-4.15m0-15.2h9.68m-9.68 0v15.2m0 0h9.68m1.38-29.38c-.92-4.6-.55-12.17 8.3-11.06 11.06 1.38 5.4 19.36 3.1 17.28-3.8-3.45-6.21-4.84-11.4-6.22zM31.5 293H148"/><path fill="#fff" d="M12 193.17v2.12A19.7 19.7 0 0031.7 215a8.3 8.3 0 008.3-8.29v-25.53a8 8 0 00-8-8c-2.4 0-4.7.43-6.84 1.2a36.3 36.3 0 013.78-1.2c.92-4.6.55-12.17-8.3-11.06-10.9 1.36-5.56 18.84-3.21 17.36a19.93 19.93 0 00-5.43 13.7z"/><path stroke="#000" d="M40 187.34v-6.17a8 8 0 00-8-8 20 20 0 00-20 20v2.12A19.7 19.7 0 0031.7 215a8.3 8.3 0 008.3-8.29v-4.15m0-15.2h-9.68m9.68 0v15.2m0 0h-9.68m-1.38-29.38c.92-4.6.55-12.17-8.3-11.06-11.06 1.38-5.4 19.36-3.1 17.28 3.8-3.45 6.21-4.84 11.4-6.22zm33.93 10.56c-1.27-14.25-1.06-22.22.03-35.57a3.44 3.44 0 013.43-3.16c2.06 0 3.66 1.8 3.44 3.86-1.4 13.03-1.3 21.41.44 35.42m50.29-1.78c1.29-14.45.62-20.25-.48-34-.12-1.47-1.63-2.6-3.45-2.6-2.04 0-3.64 1.41-3.46 3.05 1.48 13.5 1.67 20.76-.11 35.05"/><path stroke="#000" d="M70.13 183.72c1.27 14.25 1.06 22.22-.03 35.58a3.44 3.44 0 01-3.43 3.15 3.48 3.48 0 01-3.44-3.86c1.4-13.03 1.3-21.4-.44-35.42M113 184c-1.26 14.2-.32 14.91.87 27.12a3.49 3.49 0 003.46 3.16c2.06 0 3.66-1.8 3.4-3.86-1.48-11.8-1.97-13.98-.23-27.92"/><mask id="a" width="119" height="118" x="31" y="17" maskUnits="userSpaceOnUse" style="mask-type:alpha"><path fill="#fff" stroke="#000" stroke-width=".63" d="M90.55 134.57c32.46 0 58.77-26.16 58.77-58.44S123 17.68 90.55 17.68 31.79 43.85 31.79 76.13s26.31 58.44 58.76 58.44z"/></mask><g mask="url(#a)"><circle cx="90.24" cy="76.13" r="57.63" fill="#fff" stroke="#000"/><path fill="#000" d="M22 48.96h116.9v12H22z"/><path fill="#000" d="M136.45 59.68c0 13.46-10.25 24.38-22.9 24.38-12.63 0-22.88-10.92-22.88-24.38s10.25-3.1 22.89-3.1 22.89-10.36 22.89 3.1z"/><path fill="#fff" d="M108.12 62.64l5.55-12.15h6.99l-4.09 8.5a2.43 2.43 0 002.19 3.48 2.42 2.42 0 012.16 3.52l-7.25 14.25h-6.98l5.45-11.28a2.22 2.22 0 00-2-3.18 2.22 2.22 0 01-2.02-3.14z"/><path fill="#000" d="M95.25 60.28c0 13.13-10.42 23.78-23.27 23.78-12.86 0-23.28-10.65-23.28-23.78s10.42-3.03 23.28-3.03c12.85 0 23.27-10.1 23.27 3.03z"/><path fill="#fff" d="M66.8 62.76l5.34-12.27h6.65l-3.95 8.64A2.36 2.36 0 0077 62.47a2.36 2.36 0 012.12 3.39l-6.97 14.38H65.5l5.25-11.4a2.16 2.16 0 00-1.96-3.06c-1.55 0-2.6-1.6-1.98-3.02z"/><path stroke="#000" d="M66.46 86.41c.79-5.1-3.44-10-9.45-10.92-6-.93-11.51 2.46-12.3 7.56m64 19.54a7.86 7.86 0 100-15.72"/><path stroke="#000" d="M108.84 102.59a7.85 7.85 0 01-6.28-3.13m6.28-12.59a7.85 7.85 0 00-6.73 3.8"/><circle cx="108.7" cy="94.73" r="3.93" fill="#000"/><path stroke="#000" d="M95.61 103.3c1.79-.84 5.88-2.53 7.9-2.53M92.77 89.08c2.31.42 7.39 1.14 9.16.63m-39.5-46.44l22.75-10.74m39.18 13.27c-6.05-.94-18.82-4.15-21.48-9.48"/></g></svg>