<svg xmlns="http://www.w3.org/2000/svg" width="182" height="194" fill="none"><path stroke="#000" d="M84.985 163.169c-.135-.392-.323-2.817 0-9.39s6.057-9.259 8.883-9.781v31.951L74 164.5v-23l-16.5-17"/><path stroke="#000" d="m68 123.5 13.89 13.89c.39.391.61.92.61 1.473V159.5"/><path fill="#80D994" stroke="#000" d="m1 43.611 87.7-17.05 4.608 23.703-87.7 17.05z"/><path fill="#fff" stroke="#000" d="M89.973 16.428c1.146 8.79-4.675 16.747-12.938 17.824-8.263 1.076-15.929-5.123-17.074-13.912-1.146-8.79 4.675-16.747 12.938-17.824C81.162 1.44 88.828 7.64 89.973 16.428Z"/><mask id="a" fill="#fff"><path fill-rule="evenodd" d="M66.064 4.695a14.906 14.906 0 0 1 6.774-2.674C81.18.934 88.892 7.005 90.369 15.678c-2.076 3.09-5.332 5.277-9.197 5.78-7.372.961-14.171-4.568-15.185-12.35a14.925 14.925 0 0 1 .077-4.413Z" clip-rule="evenodd"/></mask><path fill="#000" fill-rule="evenodd" d="M66.064 4.695a14.906 14.906 0 0 1 6.774-2.674C81.18.934 88.892 7.005 90.369 15.678c-2.076 3.09-5.332 5.277-9.197 5.78-7.372.961-14.171-4.568-15.185-12.35a14.925 14.925 0 0 1 .077-4.413Z" clip-rule="evenodd"/><path fill="#000" d="m66.064 4.695-.582-.814-.335.24-.069.408.986.166ZM90.37 15.678l.83.558.223-.331-.067-.394-.986.167ZM66.646 5.508a13.906 13.906 0 0 1 6.32-2.495l-.258-1.983c-2.689.35-5.14 1.359-7.226 2.851l1.164 1.627Zm6.32-2.495C80.73 2 87.988 7.652 89.385 15.846l1.971-.335C89.795 6.357 81.633-.134 72.708 1.03l.259 1.983ZM89.54 15.12c-1.928 2.87-4.937 4.883-8.496 5.347l.258 1.983c4.172-.543 7.674-2.905 9.898-6.214l-1.66-1.116Zm-8.496 5.347c-6.775.883-13.115-4.203-14.065-11.489l-1.983.259C66.074 17.515 73.33 23.489 81.3 22.45l-.258-1.983ZM66.978 8.978a13.924 13.924 0 0 1 .072-4.117l-1.972-.332a15.923 15.923 0 0 0-.083 4.708l1.983-.259Z" mask="url(#a)"/><path fill="#fff" stroke="#000" d="M62.526 20.166c1.145 8.79-4.676 16.747-12.939 17.824-8.262 1.077-15.929-5.123-17.074-13.912-1.145-8.789 4.675-16.746 12.938-17.823 8.263-1.077 15.93 5.122 17.075 13.912Z"/><mask id="b" fill="#fff"><path fill-rule="evenodd" d="M38.612 8.433a14.906 14.906 0 0 1 6.773-2.673c8.344-1.088 16.054 4.983 17.532 13.657-2.077 3.088-5.332 5.276-9.197 5.78-7.373.96-14.171-4.57-15.186-12.351a14.922 14.922 0 0 1 .078-4.413Z" clip-rule="evenodd"/></mask><path fill="#000" fill-rule="evenodd" d="M38.612 8.433a14.906 14.906 0 0 1 6.773-2.673c8.344-1.088 16.054 4.983 17.532 13.657-2.077 3.088-5.332 5.276-9.197 5.78-7.373.96-14.171-4.57-15.186-12.351a14.922 14.922 0 0 1 .078-4.413Z" clip-rule="evenodd"/><path fill="#000" d="m38.612 8.433-.582-.813-.336.24-.068.407.986.166Zm24.305 10.984.83.558.223-.332-.067-.394-.986.168ZM39.194 9.247a13.906 13.906 0 0 1 6.32-2.496l-.258-1.983c-2.689.35-5.14 1.359-7.226 2.852l1.164 1.626Zm6.32-2.496c7.762-1.011 15.021 4.639 16.417 12.834l1.972-.336c-1.56-9.153-9.722-15.644-18.647-14.481l.259 1.983ZM62.088 18.86c-1.928 2.868-4.938 4.882-8.496 5.346l.258 1.983c4.172-.543 7.673-2.904 9.898-6.213l-1.66-1.116Zm-8.496 5.346c-6.775.883-13.116-4.203-14.065-11.488l-1.983.258c1.079 8.279 8.336 14.252 16.306 13.213l-.258-1.983ZM39.526 12.717a13.925 13.925 0 0 1 .072-4.118l-1.972-.332a15.923 15.923 0 0 0-.083 4.708l1.983-.258Z" mask="url(#b)"/><ellipse cx="39.742" cy="38.853" fill="#80D994" rx="8.673" ry="7.372" transform="rotate(8.788 39.742 38.853)"/><path stroke="#000" d="M48.314 40.178c.622-4.024-2.711-7.879-7.445-8.61-4.734-.733-9.076 1.936-9.698 5.96M29 124.001l13.48 14.256-18.322-.564 17.709 34.929V192.5c3.633-4 15.133-19 5.616-25.228"/><path stroke="#000" d="m37.478 119.001 15.298 16.06c3.322 4.307 3.096 9.155-4.833 11.328-.755.207-10.583.831-10.583.831l10.467 20.413"/><path fill="#000" d="M56 123h11.294L72 128H60.706L56 123ZM28 123h13.294L46 128H32.706L28 123Z"/><path fill="#80D994" stroke="#000" d="M5.025 100.613h89.342v24.146H5.025zM5.025 71.637h89.342v24.146H5.025z"/><path fill="#fff" d="M181.179 90.03v1.91c0 9.785-7.933 17.718-17.719 17.718a7.46 7.46 0 0 1-7.46-7.46V79.24a7.194 7.194 0 0 1 7.194-7.195c2.161 0 4.232.381 6.151 1.08-.993-.387-2.099-.733-3.398-1.08-.829-4.144-.497-10.942 7.461-9.947 9.801 1.225 5 16.943 2.889 15.613a17.923 17.923 0 0 1 4.882 12.32Z"/><path stroke="#000" d="M156 84.79v-5.55a7.194 7.194 0 0 1 7.194-7.195c9.933 0 17.985 8.052 17.985 17.985v1.91c0 9.785-7.933 17.718-17.719 17.718a7.46 7.46 0 0 1-7.46-7.46V84.79Zm0 0h8.704m1.243-12.744c-.829-4.145-.497-10.943 7.461-9.948 9.947 1.244 4.854 17.413 2.797 15.543-3.419-3.109-5.595-4.352-10.258-5.595Z"/><path fill="#fff" stroke="#000" d="M181.179 113.985v1.909c0 9.786-7.933 17.719-17.719 17.719a7.46 7.46 0 0 1-7.46-7.461v-22.958A7.194 7.194 0 0 1 163.194 96c2.161 0 4.232.381 6.151 1.08 6.904 2.512 11.834 9.133 11.834 16.905Z"/></svg>