<svg xmlns="http://www.w3.org/2000/svg" width="182" height="194" fill="none"><path stroke="#000" d="M97.194 163.169c.134-.392.323-2.817 0-9.39s-6.057-9.259-8.884-9.781v31.951L108.18 164.5v-23l16.5-17"/><path stroke="#000" d="m114.179 123.5-13.89 13.89c-.39.391-.61.92-.61 1.473V159.5"/><path fill="#FF0070" stroke="#000" d="m181.179 43.611-87.7-17.05-4.608 23.703 87.7 17.05z"/><path fill="#fff" stroke="#000" d="M92.206 16.428c-1.146 8.79 4.675 16.747 12.938 17.824 8.263 1.076 15.929-5.123 17.074-13.912 1.146-8.79-4.675-16.747-12.938-17.824-8.263-1.077-15.93 5.123-17.075 13.912Z"/><mask id="a" fill="#fff"><path fill-rule="evenodd" d="M116.114 4.695a14.902 14.902 0 0 0-6.773-2.674C100.998.934 93.287 7.005 91.809 15.678c2.077 3.09 5.332 5.277 9.197 5.78 7.373.961 14.172-4.568 15.186-12.35.197-1.51.161-2.995-.078-4.413Z" clip-rule="evenodd"/></mask><path fill="#000" fill-rule="evenodd" d="M116.114 4.695a14.902 14.902 0 0 0-6.773-2.674C100.998.934 93.287 7.005 91.809 15.678c2.077 3.09 5.332 5.277 9.197 5.78 7.373.961 14.172-4.568 15.186-12.35.197-1.51.161-2.995-.078-4.413Z" clip-rule="evenodd"/><path fill="#000" d="m116.114 4.695.582-.814.336.24.069.408-.987.166ZM91.809 15.678l-.83.558-.222-.331.067-.394.985.167Zm23.724-10.17a13.91 13.91 0 0 0-6.321-2.495l.258-1.983c2.689.35 5.141 1.359 7.226 2.851l-1.163 1.627Zm-6.321-2.495C101.45 2 94.192 7.652 92.795 15.846l-1.971-.335C92.383 6.357 100.545-.134 109.47 1.03l-.258 1.983ZM92.639 15.12c1.929 2.87 4.938 4.883 8.497 5.347l-.259 1.983c-4.171-.543-7.673-2.905-9.897-6.214l1.66-1.116Zm8.497 5.347c6.775.883 13.115-4.203 14.065-11.489l1.983.259c-1.079 8.278-8.337 14.252-16.307 13.213l.259-1.983Zm14.065-11.489c.183-1.411.15-2.796-.073-4.117l1.973-.332a15.96 15.96 0 0 1 .083 4.708l-1.983-.259Z" mask="url(#a)"/><path fill="#fff" stroke="#000" d="M119.653 20.166c-1.146 8.79 4.675 16.747 12.938 17.824 8.263 1.077 15.929-5.123 17.075-13.912 1.145-8.789-4.676-16.746-12.939-17.823-8.262-1.077-15.929 5.122-17.074 13.912Z"/><mask id="b" fill="#fff"><path fill-rule="evenodd" d="M143.567 8.433a14.91 14.91 0 0 0-6.774-2.673c-8.343-1.088-16.054 4.983-17.531 13.657 2.076 3.088 5.332 5.276 9.197 5.78 7.372.96 14.171-4.57 15.185-12.351.197-1.51.162-2.995-.077-4.413Z" clip-rule="evenodd"/></mask><path fill="#000" fill-rule="evenodd" d="M143.567 8.433a14.91 14.91 0 0 0-6.774-2.673c-8.343-1.088-16.054 4.983-17.531 13.657 2.076 3.088 5.332 5.276 9.197 5.78 7.372.96 14.171-4.57 15.185-12.351.197-1.51.162-2.995-.077-4.413Z" clip-rule="evenodd"/><path fill="#000" d="m143.567 8.433.582-.813.335.24.069.407-.986.166Zm-24.305 10.984-.83.558-.223-.332.067-.394.986.168Zm23.723-10.17a13.91 13.91 0 0 0-6.321-2.496l.259-1.983c2.689.35 5.14 1.359 7.226 2.852l-1.164 1.626Zm-6.321-2.496c-7.762-1.011-15.02 4.639-16.417 12.834l-1.971-.336c1.559-9.153 9.722-15.644 18.647-14.481l-.259 1.983ZM120.092 18.86c1.928 2.868 4.937 4.882 8.496 5.346l-.258 1.983c-4.172-.543-7.674-2.904-9.898-6.213l1.66-1.116Zm8.496 5.346c6.775.883 13.115-4.203 14.065-11.488l1.983.258c-1.079 8.279-8.336 14.252-16.306 13.213l.258-1.983Zm14.065-11.488c.184-1.412.15-2.797-.072-4.118l1.972-.332c.255 1.515.293 3.099.083 4.708l-1.983-.258Z" mask="url(#b)"/><ellipse cx="8.673" cy="7.372" fill="#FF0070" rx="8.673" ry="7.372" transform="scale(-1 1) rotate(8.788 -271.729 -960.165)"/><path stroke="#000" d="M133.865 40.178c-.622-4.024 2.711-7.879 7.445-8.61 4.734-.733 9.075 1.936 9.697 5.96M153.179 124.001l-13.481 14.256 18.322-.564-17.708 34.929V192.5c-3.633-4-15.133-19-5.616-25.228"/><path stroke="#000" d="m144.701 119.001-15.298 16.06c-3.322 4.307-3.096 9.155 4.832 11.328.756.207 10.584.831 10.584.831l-10.467 20.413"/><path fill="#000" d="M126.179 123h-11.295l-4.705 5h11.294l4.706-5ZM154.179 123h-13.295l-4.705 5h13.294l4.706-5Z"/><path fill="#FF0070" stroke="#000" d="M177.154 100.613H87.812v24.146h89.342zM177.154 71.637H87.812v24.146h89.342z"/><path fill="#fff" d="M1 90.03v1.91c0 9.785 7.933 17.718 17.718 17.718a7.46 7.46 0 0 0 7.46-7.46V79.24a7.194 7.194 0 0 0-7.193-7.195c-2.16 0-4.232.381-6.151 1.08.993-.387 2.099-.733 3.398-1.08.829-4.144.497-10.942-7.46-9.947-9.803 1.225-5.001 16.943-2.89 15.613A17.922 17.922 0 0 0 1 90.031Z"/><path stroke="#000" d="M26.179 84.79v-5.55a7.194 7.194 0 0 0-7.194-7.195C9.052 72.045 1 80.097 1 90.03v1.91c0 9.785 7.933 17.718 17.718 17.718a7.46 7.46 0 0 0 7.46-7.46V84.79Zm0 0h-8.704m-1.243-12.744c.829-4.145.497-10.943-7.46-9.948-9.948 1.244-4.856 17.413-2.798 15.543 3.419-3.109 5.595-4.352 10.258-5.595Z"/><path fill="#fff" stroke="#000" d="M1 113.985v1.909c0 9.786 7.933 17.719 17.718 17.719a7.46 7.46 0 0 0 7.46-7.461v-22.958A7.194 7.194 0 0 0 18.986 96c-2.16 0-4.232.381-6.151 1.08C5.93 99.591 1 106.212 1 113.984Z"/></svg>