<svg xmlns="http://www.w3.org/2000/svg" viewBox="0 0 106.173 88.141">
    <path fill="white" d="M58.86 1.86c-3.811 12.242 12.85 19.956 11.57 24.058-6.647 2.559-13.999-1.187-20.984.878-5.721-.383-11.325 1.025-16.432 3.533-6.136 1.982-10.17 7.165-14.864 11.225-3.464 1.568-4.49 6.217-6.804 7.978-3.672-.511-12.524-.31-7.969 6.32 1.22 2.382 5.745 6.324 7.59 4.56-2.378 2.856-4.766 1.418-6.312 4.922-2.1 4.187-2.544 9.11-4.507 13.246-.53 2.954.25 11.144 3.957 9.287 7.275-4.485 1.743-19.622 19.276-18.145 4.569-.433 7.789-4.464 11.285-7.073 2.72-.835 5.99-2.794 8.31-4.083 5.21-2.792 23.44-5.884 25.036-4.951 5.387 1.527 11.246.987 16.521 3.17 2.708 1.459 11.195 5.674 10.554-.103-.347-2.504-6.755-5.518-1.177-4.022 3.873.547 9.873 4.053 12.263-.441-.192-4.866-5.182-1.922-7.514-3.5-2.531-.936-3.592-1.72-6.804-2.422-5.975-.698-.958-5.048 2.588-4.87 5.882-.288 4.056-8.503 1.569-11.284-2.491-5.221-7.826-8.042-13.195-9.428-2.35-4.866-4.261-10.08-7.704-14.285-2.4-2.35-8.058-4.477-10.115-2.28-1.074.353-4.416-7.672-6.138-2.29z"/>
</svg>