<svg xmlns="http://www.w3.org/2000/svg" fill="none" viewBox="0 0 220 54"><g clip-path="url(#a)"><path fill="#FEAFE8" stroke="#000" d="M69.652 1H219v51.79H69.652V1z"/><path fill="#FEAFE8" stroke="#000" d="M41.347 39.541h30.11a6.624 6.624 0 1 1 0 13.249h-30.11a6.624 6.624 0 1 1 0-13.249z"/><path fill="#FEAFE8" d="M32.314 27.497H72.06a6.022 6.022 0 0 1 0 12.044H32.314a6.022 6.022 0 0 1 0-12.044z"/><path stroke="#000" d="M72.06 27.497H32.314a6.022 6.022 0 0 0 0 12.044H72.06a6.022 6.022 0 0 0 0-12.044z"/><path fill="#FEAFE8" stroke="#000" d="M32.916 14.249h38.542a6.624 6.624 0 1 1 0 13.248H32.916a6.624 6.624 0 1 1 0-13.248zM7.624 1h63.834a6.624 6.624 0 1 1 0 13.249H7.624A6.624 6.624 0 1 1 7.624 1z"/><path fill="#FEAFE8" d="M68.512 1h37.274l-4.141 30.33c-16.566 3.465-24.39-8.185-26.23-14.443-6.903 4.814-23.192 15.02-33.132 17.33-9.94 2.311-10.584-3.85-9.664-7.22L68.512 1z"/><path stroke="#000" d="M105.786 1H68.512L32.619 26.996c-.92 3.37-.276 9.533 9.664 7.222 9.94-2.311 26.229-12.517 33.132-17.331 1.84 6.258 9.664 17.908 26.23 14.442"/><path fill="#F1C049" stroke="#000" d="M159.984 1h20.475v51.79h-20.475V1zm38.541 0H219v51.79h-20.475V1z"/></g><defs><clipPath id="a"><path fill="#fff" d="M220 0H0v54h220z"/></clipPath></defs></svg>