<svg width="446" height="466" viewBox="0 0 446 466" fill="none" xmlns="http://www.w3.org/2000/svg">
<path fill-rule="evenodd" clip-rule="evenodd" d="M189.622 45.752C186.133 46.3682 182.807 44.0349 182.191 40.5405C181.576 37.0461 183.906 33.7139 187.394 33.0977C190.883 32.4815 194.21 34.8148 194.825 38.3092C195.44 41.8036 193.11 45.1359 189.622 45.752ZM253.479 408.51C249.991 409.126 246.664 406.793 246.049 403.298C245.434 399.804 247.763 396.472 251.252 395.855C254.74 395.239 258.067 397.572 258.682 401.067C259.297 404.561 256.968 407.894 253.479 408.51Z" fill="#EEEEEE"/>
<path fill-rule="evenodd" clip-rule="evenodd" d="M281.132 53.7713C277.803 52.5577 276.087 48.8709 277.299 45.5366C278.51 42.2022 282.191 40.4831 285.52 41.6966C288.848 42.9102 290.565 46.597 289.353 49.9314C288.142 53.2657 284.461 54.9849 281.132 53.7713ZM155.357 399.911C152.029 398.697 150.312 395.01 151.524 391.676C152.735 388.342 156.416 386.622 159.745 387.836C163.074 389.05 164.79 392.736 163.578 396.071C162.367 399.405 158.686 401.124 155.357 399.911Z" fill="#EEEEEE"/>
<path fill-rule="evenodd" clip-rule="evenodd" d="M372.548 129.255C370.724 126.213 371.706 122.266 374.743 120.438C377.779 118.611 381.72 119.595 383.544 122.637C385.369 125.678 384.386 129.625 381.35 131.453C378.313 133.28 374.373 132.296 372.548 129.255ZM57.3328 318.971C55.5083 315.929 56.4908 311.982 59.5272 310.155C62.5636 308.327 66.5042 309.311 68.3286 312.353C70.1531 315.394 69.1706 319.341 66.1342 321.169C63.0978 322.996 59.1572 322.012 57.3328 318.971Z" fill="#EEEEEE"/>
<path fill-rule="evenodd" clip-rule="evenodd" d="M395.198 189.937C394.583 186.443 396.913 183.111 400.401 182.495C403.89 181.878 407.216 184.212 407.832 187.706C408.447 191.2 406.117 194.533 402.629 195.149C399.14 195.765 395.813 193.432 395.198 189.937ZM33.0441 253.901C32.429 250.407 34.7584 247.075 38.247 246.458C41.7356 245.842 45.0623 248.176 45.6774 251.67C46.2926 255.164 43.9632 258.497 40.4746 259.113C36.986 259.729 33.6592 257.396 33.0441 253.901Z" fill="#EEEEEE"/>
<path fill-rule="evenodd" clip-rule="evenodd" d="M41.6305 155.614C42.8421 152.28 46.5227 150.56 49.8515 151.774C53.1803 152.988 54.8966 156.674 53.685 160.009C52.4734 163.343 48.7928 165.062 45.464 163.849C42.1352 162.635 40.4189 158.948 41.6305 155.614ZM387.194 281.598C388.405 278.264 392.086 276.545 395.415 277.758C398.744 278.972 400.46 282.659 399.248 285.993C398.037 289.328 394.356 291.047 391.027 289.833C387.699 288.62 385.982 284.933 387.194 281.598Z" fill="#EEEEEE"/>
<path fill-rule="evenodd" clip-rule="evenodd" d="M98.1243 74.7943C100.838 72.5135 104.884 72.8681 107.161 75.5862C109.438 78.3044 109.084 82.3569 106.37 84.6377C103.656 86.9185 99.6107 86.5639 97.3337 83.8458C95.0567 81.1276 95.4107 77.0751 98.1243 74.7943ZM334.504 356.97C337.217 354.689 341.263 355.043 343.54 357.762C345.817 360.48 345.463 364.532 342.749 366.813C340.036 369.094 335.99 368.739 333.713 366.021C331.436 363.303 331.79 359.251 334.504 356.97Z" fill="#EEEEEE"/>
<path fill-rule="evenodd" clip-rule="evenodd" d="M224.895 68.3602C221.352 68.3602 218.48 65.4837 218.48 61.9354C218.48 58.3871 221.352 55.5106 224.895 55.5106C228.437 55.5106 231.309 58.3871 231.309 61.9354C231.309 65.4837 228.437 68.3602 224.895 68.3602ZM224.895 436.714C221.352 436.714 218.48 433.838 218.48 430.289C218.48 426.741 221.352 423.864 224.895 423.864C228.437 423.864 231.309 426.741 231.309 430.289C231.309 433.838 228.437 436.714 224.895 436.714Z" fill="#EEEEEE"/>
<path fill-rule="evenodd" clip-rule="evenodd" d="M321.544 97.0369C318.573 95.1043 317.729 91.1253 319.658 88.1494C321.588 85.1736 325.56 84.3278 328.531 86.2603C331.502 88.1929 332.346 92.1719 330.417 95.1478C328.487 98.1236 324.515 98.9694 321.544 97.0369ZM121.258 405.964C118.287 404.032 117.443 400.053 119.372 397.077C121.301 394.101 125.274 393.255 128.245 395.188C131.216 397.12 132.06 401.099 130.131 404.075C128.201 407.051 124.229 407.897 121.258 405.964Z" fill="#EEEEEE"/>
<path fill-rule="evenodd" clip-rule="evenodd" d="M61.7859 344.279C59.9614 341.238 60.9439 337.291 63.9803 335.463C67.0168 333.636 70.9573 334.62 72.7818 337.661C74.6063 340.703 73.6238 344.65 70.5874 346.478C67.5509 348.305 63.6104 347.321 61.7859 344.279ZM377.001 154.563C375.177 151.522 376.159 147.575 379.196 145.747C382.232 143.92 386.173 144.904 387.997 147.945C389.822 150.987 388.839 154.934 385.803 156.761C382.766 158.589 378.826 157.605 377.001 154.563Z" fill="#EEEEEE"/>
<path fill-rule="evenodd" clip-rule="evenodd" d="M401.674 261.605C401.983 258.07 405.094 255.455 408.623 255.764C412.152 256.073 414.762 259.19 414.454 262.724C414.145 266.259 411.034 268.874 407.505 268.565C403.976 268.256 401.365 265.139 401.674 261.605ZM35.3326 229.5C35.6414 225.966 38.7524 223.351 42.2813 223.66C45.8102 223.969 48.4207 227.085 48.112 230.62C47.8032 234.155 44.6922 236.77 41.1633 236.461C37.6343 236.151 35.0239 233.035 35.3326 229.5Z" fill="#EEEEEE"/>
<path fill-rule="evenodd" clip-rule="evenodd" d="M378.574 334.989C380.345 331.916 384.268 330.863 387.336 332.637C390.404 334.411 391.455 338.34 389.684 341.413C387.912 344.486 383.99 345.539 380.922 343.765C377.854 341.991 376.803 338.061 378.574 334.989ZM60.1011 150.812C61.8723 147.739 65.7951 146.686 68.8629 148.46C71.9307 150.234 72.9819 154.163 71.2106 157.236C69.4394 160.309 65.5166 161.362 62.4488 159.588C59.381 157.814 58.3299 153.884 60.1011 150.812Z" fill="#EEEEEE"/>
<path fill-rule="evenodd" clip-rule="evenodd" d="M285.585 413.145C288.914 411.931 292.595 413.65 293.806 416.985C295.018 420.319 293.301 424.006 289.973 425.219C286.644 426.433 282.963 424.714 281.752 421.379C280.54 418.045 282.256 414.358 285.585 413.145ZM159.81 67.0053C163.139 65.7918 166.82 67.5109 168.031 70.8453C169.243 74.1796 167.527 77.8664 164.198 79.08C160.869 80.2936 157.188 78.5744 155.977 75.2401C154.765 71.9058 156.481 68.2189 159.81 67.0053Z" fill="#EEEEEE"/>
</svg>