<svg width="388" height="412" viewBox="0 0 388 412" fill="none" xmlns="http://www.w3.org/2000/svg">
<path fill-rule="evenodd" clip-rule="evenodd" d="M196.897 27.5281C193.355 27.4662 190.433 30.2921 190.372 33.8398C190.31 37.3876 193.131 40.3138 196.673 40.3758C200.215 40.4377 203.136 37.6119 203.198 34.0641C203.26 30.5163 200.439 27.5901 196.897 27.5281ZM190.479 395.826C186.937 395.764 184.016 398.59 183.954 402.138C183.892 405.685 186.713 408.612 190.255 408.674C193.797 408.735 196.718 405.91 196.78 402.362C196.842 398.814 194.021 395.888 190.479 395.826Z" fill="#EEEEEE"/>
<path fill-rule="evenodd" clip-rule="evenodd" d="M101.324 51.3962C98.2259 53.1164 97.1067 57.0268 98.8242 60.1304C100.542 63.234 104.445 64.3555 107.544 62.6353C110.642 60.9151 111.761 57.0047 110.043 53.9012C108.326 50.7976 104.422 49.6761 101.324 51.3962ZM279.608 373.566C276.51 375.286 275.391 379.196 277.109 382.3C278.826 385.403 282.73 386.525 285.828 384.805C288.926 383.085 290.045 379.174 288.328 376.071C286.61 372.967 282.706 371.846 279.608 373.566Z" fill="#EEEEEE"/>
<path fill-rule="evenodd" clip-rule="evenodd" d="M358.113 284.688C356.786 287.978 358.373 291.723 361.658 293.052C364.942 294.381 368.68 292.792 370.007 289.502C371.334 286.212 369.748 282.467 366.463 281.138C363.179 279.809 359.44 281.398 358.113 284.688ZM17.1499 146.7C15.8229 149.99 17.4097 153.735 20.6942 155.064C23.9786 156.393 27.717 154.804 29.044 151.514C30.371 148.224 28.7842 144.479 25.4997 143.15C22.2152 141.821 18.4769 143.41 17.1499 146.7Z" fill="#EEEEEE"/>
<path fill-rule="evenodd" clip-rule="evenodd" d="M3.32223 214.775C3.26041 218.322 6.08152 221.248 9.62339 221.31C13.1653 221.372 16.0866 218.547 16.1484 214.999C16.2102 211.451 13.3891 208.525 9.84727 208.463C6.3054 208.401 3.38405 211.227 3.32223 214.775ZM371.007 221.203C370.945 224.751 373.766 227.677 377.308 227.739C380.85 227.801 383.772 224.975 383.833 221.427C383.895 217.88 381.074 214.953 377.532 214.892C373.99 214.83 371.069 217.655 371.007 221.203Z" fill="#EEEEEE"/>
<path fill-rule="evenodd" clip-rule="evenodd" d="M27.1517 310.506C28.8692 313.61 32.773 314.732 35.8711 313.011C38.9692 311.291 40.0884 307.381 38.3709 304.277C36.6534 301.174 32.7496 300.052 29.6515 301.772C26.5535 303.492 25.4342 307.403 27.1517 310.506ZM348.785 131.925C350.503 135.029 354.406 136.15 357.505 134.43C360.603 132.71 361.722 128.799 360.004 125.696C358.287 122.592 354.383 121.471 351.285 123.191C348.187 124.911 347.068 128.821 348.785 131.925Z" fill="#EEEEEE"/>
<path fill-rule="evenodd" clip-rule="evenodd" d="M284.972 65.7381C288.009 67.5655 291.949 66.5812 293.774 63.5395C295.598 60.4978 294.616 56.5507 291.58 54.7233C288.543 52.8958 284.603 53.8802 282.778 56.9218C280.954 59.9635 281.936 63.9107 284.972 65.7381ZM95.5718 381.479C98.608 383.306 102.549 382.322 104.373 379.28C106.198 376.239 105.215 372.292 102.179 370.464C99.1429 368.637 95.2024 369.621 93.3778 372.663C91.5532 375.704 92.5355 379.652 95.5718 381.479Z" fill="#EEEEEE"/>
<path fill-rule="evenodd" clip-rule="evenodd" d="M164.26 4.15068C160.761 4.70576 158.374 7.99679 158.928 11.5014C159.482 15.006 162.768 17.3971 166.266 16.842C169.765 16.287 172.152 12.9959 171.598 9.49129C171.044 5.98668 167.758 3.5956 164.26 4.15068ZM221.787 367.969C218.288 368.525 215.901 371.816 216.455 375.32C217.009 378.825 220.295 381.216 223.794 380.661C227.293 380.106 229.68 376.815 229.126 373.31C228.571 369.805 225.286 367.414 221.787 367.969Z" fill="#EEEEEE"/>
<path fill-rule="evenodd" clip-rule="evenodd" d="M66.7001 50.7611C64.0676 53.1353 63.8551 57.1977 66.2255 59.8346C68.5958 62.4716 72.6514 62.6845 75.2839 60.3102C77.9164 57.936 78.1289 53.8736 75.7586 51.2367C73.3882 48.5997 69.3326 48.3868 66.7001 50.7611ZM312.767 324.501C310.134 326.876 309.922 330.938 312.292 333.575C314.663 336.212 318.718 336.425 321.351 334.05C323.983 331.676 324.196 327.614 321.825 324.977C319.455 322.34 315.399 322.127 312.767 324.501Z" fill="#EEEEEE"/>
<path fill-rule="evenodd" clip-rule="evenodd" d="M17.5952 121.005C16.2682 124.295 17.855 128.039 21.1395 129.369C24.424 130.698 28.1623 129.108 29.4893 125.819C30.8163 122.529 29.2295 118.784 25.945 117.455C22.6606 116.126 18.9222 117.715 17.5952 121.005ZM358.559 258.993C357.232 262.283 358.818 266.027 362.103 267.356C365.387 268.686 369.126 267.096 370.453 263.806C371.78 260.516 370.193 256.772 366.908 255.443C363.624 254.113 359.886 255.703 358.559 258.993Z" fill="#EEEEEE"/>
<path fill-rule="evenodd" clip-rule="evenodd" d="M366.21 149.404C367.067 152.847 370.548 154.942 373.985 154.083C377.423 153.225 379.514 149.738 378.657 146.295C377.8 142.852 374.319 140.757 370.882 141.615C367.445 142.474 365.353 145.961 366.21 149.404ZM9.39265 238.517C10.2496 241.959 13.7307 244.055 17.1679 243.196C20.6051 242.338 22.6967 238.851 21.8398 235.408C20.9828 231.965 17.5017 229.87 14.0645 230.728C10.6273 231.587 8.53564 235.074 9.39265 238.517Z" fill="#EEEEEE"/>
<path fill-rule="evenodd" clip-rule="evenodd" d="M46.1463 312.355C48.3756 315.113 52.4145 315.538 55.1675 313.305C57.9204 311.072 58.3448 307.026 56.1154 304.269C53.8861 301.511 49.8472 301.086 47.0943 303.319C44.3414 305.552 43.9169 309.598 46.1463 312.355ZM331.935 80.5427C334.164 83.3003 338.203 83.7256 340.956 81.4926C343.709 79.2596 344.133 75.2139 341.904 72.4563C339.674 69.6987 335.636 69.2734 332.883 71.5064C330.13 73.7394 329.705 77.7851 331.935 80.5427Z" fill="#EEEEEE"/>
<path fill-rule="evenodd" clip-rule="evenodd" d="M227.884 17.9195C231.361 18.5965 234.728 16.3217 235.404 12.8386C236.08 9.35551 233.809 5.98303 230.331 5.30598C226.854 4.62893 223.487 6.9037 222.811 10.3868C222.135 13.8699 224.406 17.2424 227.884 17.9195ZM157.715 379.506C161.193 380.183 164.56 377.908 165.236 374.425C165.911 370.942 163.64 367.569 160.163 366.892C156.686 366.215 153.319 368.49 152.643 371.973C151.967 375.456 154.238 378.829 157.715 379.506Z" fill="#FFCC01"/>
</svg>