<svg width="535" height="545" viewBox="0 0 535 545" fill="none" xmlns="http://www.w3.org/2000/svg">
<path fill-rule="evenodd" clip-rule="evenodd" d="M175.885 119.412C172.849 121.24 171.866 125.187 173.691 128.228C175.515 131.27 179.456 132.254 182.492 130.426C185.528 128.599 186.511 124.652 184.687 121.61C182.862 118.569 178.922 117.585 175.885 119.412ZM365.286 435.153C362.249 436.98 361.267 440.928 363.091 443.969C364.916 447.011 368.856 447.995 371.893 446.167C374.929 444.34 375.912 440.393 374.087 437.351C372.263 434.31 368.322 433.325 365.286 435.153Z" fill="#EEEEEE"/>
<path fill-rule="evenodd" clip-rule="evenodd" d="M107.463 190.384C105.746 193.488 106.865 197.398 109.963 199.118C113.061 200.838 116.965 199.717 118.683 196.614C120.4 193.51 119.281 189.6 116.182 187.88C113.084 186.159 109.18 187.281 107.463 190.384ZM429.096 368.966C427.379 372.069 428.498 375.979 431.597 377.7C434.695 379.42 438.599 378.299 440.316 375.195C442.034 372.092 440.914 368.181 437.816 366.461C434.718 364.741 430.814 365.862 429.096 368.966Z" fill="#EEEEEE"/>
<path fill-rule="evenodd" clip-rule="evenodd" d="M448.652 251.923C449.267 255.418 452.594 257.751 456.083 257.135C459.571 256.519 461.901 253.186 461.286 249.692C460.671 246.198 457.344 243.864 453.855 244.48C450.367 245.097 448.037 248.429 448.652 251.923ZM86.4983 315.887C87.1134 319.382 90.4401 321.715 93.9287 321.099C97.4173 320.483 99.7467 317.15 99.1316 313.656C98.5164 310.162 95.1897 307.828 91.7011 308.444C88.2125 309.061 85.8831 312.393 86.4983 315.887Z" fill="#EEEEEE"/>
<path fill-rule="evenodd" clip-rule="evenodd" d="M425.999 191.24C427.824 194.282 431.764 195.266 434.8 193.439C437.837 191.611 438.819 187.664 436.995 184.622C435.17 181.581 431.23 180.597 428.193 182.424C425.157 184.252 424.175 188.199 425.999 191.24ZM110.784 380.957C112.608 383.998 116.549 384.982 119.585 383.155C122.621 381.327 123.604 377.38 121.779 374.339C119.955 371.297 116.014 370.313 112.978 372.141C109.942 373.968 108.959 377.915 110.784 380.957Z" fill="#EEEEEE"/>
<path fill-rule="evenodd" clip-rule="evenodd" d="M359.922 127.324C363.02 129.044 366.924 127.923 368.641 124.82C370.359 121.716 369.239 117.806 366.141 116.086C363.043 114.365 359.139 115.487 357.422 118.59C355.704 121.693 356.824 125.604 359.922 127.324ZM181.638 449.494C184.736 451.214 188.64 450.093 190.357 446.989C192.074 443.886 190.955 439.975 187.857 438.255C184.759 436.535 180.855 437.656 179.137 440.76C177.42 443.863 178.539 447.773 181.638 449.494Z" fill="#EEEEEE"/>
<path fill-rule="evenodd" clip-rule="evenodd" d="M277.211 473.362C280.753 473.3 283.574 470.374 283.512 466.826C283.451 463.279 280.529 460.453 276.987 460.515C273.445 460.577 270.624 463.503 270.686 467.051C270.748 470.598 273.669 473.424 277.211 473.362ZM270.793 105.065C274.335 105.003 277.156 102.076 277.094 98.5286C277.033 94.9809 274.111 92.155 270.569 92.217C267.028 92.2789 264.206 95.2051 264.268 98.7529C264.33 102.301 267.251 105.126 270.793 105.065Z" fill="#EEEEEE"/>
<path fill-rule="evenodd" clip-rule="evenodd" d="M135.839 116.912C133.165 119.24 132.882 123.298 135.206 125.976C137.53 128.654 141.581 128.938 144.255 126.61C146.928 124.282 147.212 120.224 144.888 117.546C142.564 114.868 138.512 114.584 135.839 116.912ZM377.099 394.912C374.425 397.24 374.142 401.298 376.466 403.976C378.79 406.654 382.841 406.938 385.515 404.61C388.188 402.282 388.471 398.224 386.147 395.546C383.823 392.868 379.772 392.584 377.099 394.912Z" fill="#EEEEEE"/>
<path fill-rule="evenodd" clip-rule="evenodd" d="M431.26 309.757C430.284 313.167 432.253 316.725 435.658 317.703C439.063 318.681 442.615 316.709 443.591 313.298C444.568 309.887 442.599 306.329 439.194 305.351C435.789 304.373 432.237 306.346 431.26 309.757ZM77.7651 208.224C76.7886 211.635 78.7575 215.193 82.1626 216.171C85.5677 217.149 89.1197 215.177 90.0961 211.766C91.0726 208.355 89.1037 204.797 85.6986 203.819C82.2935 202.841 78.7415 204.814 77.7651 208.224Z" fill="#EEEEEE"/>
<path fill-rule="evenodd" clip-rule="evenodd" d="M435.438 229.895C436.053 233.389 439.379 235.722 442.868 235.106C446.357 234.49 448.686 231.158 448.071 227.663C447.456 224.169 444.129 221.836 440.64 222.452C437.152 223.068 434.822 226.4 435.438 229.895ZM73.2834 293.859C73.8985 297.353 77.2253 299.686 80.7138 299.07C84.2024 298.454 86.5318 295.122 85.9167 291.627C85.3016 288.133 81.9748 285.8 78.4863 286.416C74.9977 287.032 72.6683 290.364 73.2834 293.859Z" fill="#EEEEEE"/>
<path fill-rule="evenodd" clip-rule="evenodd" d="M383.949 132.897C386.497 135.362 390.558 135.291 393.018 132.738C395.479 130.186 395.408 126.119 392.86 123.654C390.312 121.189 386.251 121.26 383.79 123.812C381.33 126.365 381.401 130.432 383.949 132.897ZM128.494 397.869C131.043 400.333 135.103 400.262 137.564 397.71C140.025 395.158 139.954 391.09 137.406 388.625C134.857 386.161 130.797 386.232 128.336 388.784C125.875 391.336 125.946 395.404 128.494 397.869Z" fill="#EEEEEE"/>
<path fill-rule="evenodd" clip-rule="evenodd" d="M318.45 92.6935C321.8 93.8487 325.45 92.0653 326.603 88.7102C327.756 85.3551 325.976 81.6988 322.627 80.5437C319.278 79.3885 315.628 81.1719 314.474 84.527C313.321 87.8821 315.101 91.5383 318.45 92.6935ZM198.726 440.979C202.075 442.134 205.725 440.351 206.878 436.996C208.032 433.64 206.251 429.984 202.902 428.829C199.553 427.674 195.903 429.457 194.749 432.812C193.596 436.167 195.376 439.824 198.726 440.979Z" fill="#EEEEEE"/>
<path fill-rule="evenodd" clip-rule="evenodd" d="M197.081 94.8152C200.388 93.5436 202.04 89.8274 200.771 86.5148C199.501 83.2021 195.791 81.5475 192.484 82.8191C189.177 84.0907 187.525 87.807 188.795 91.1196C190.064 94.4323 193.774 96.0868 197.081 94.8152ZM328.868 438.703C332.175 437.432 333.827 433.715 332.557 430.403C331.288 427.09 327.578 425.436 324.271 426.707C320.964 427.979 319.312 431.695 320.581 435.008C321.851 438.32 325.561 439.975 328.868 438.703Z" fill="#FFCC01"/>
</svg>