<svg width="316" height="317" viewBox="0 0 316 317" fill="none" xmlns="http://www.w3.org/2000/svg">
<path id="Star 2" fill-rule="evenodd" clip-rule="evenodd" d="M124.494 259.529C129.724 242.4 107.184 230.896 96.423 245.203L65.6301 286.142L94.9962 244.142C105.254 229.471 87.3587 211.566 72.709 221.843L30.7931 251.247L71.7024 220.375C85.9856 209.596 74.4861 187.04 57.3794 192.28L8.42641 207.277L56.8852 190.569C73.7977 184.738 69.8214 159.737 51.932 159.426L0.71936 158.536L51.9788 157.644C69.8662 157.333 73.8046 132.336 56.8853 126.502L8.42641 109.794L57.4521 124.813C74.5626 130.055 86.0309 107.509 71.74 96.7246L30.7931 65.8237L72.7713 95.2723C87.4279 105.554 105.303 87.6696 95.0399 72.9915L65.6301 30.9287L96.4513 71.9062C107.218 86.2203 129.747 74.7476 124.516 57.6148L109.527 8.52466L126.189 57.0093C132.011 73.9523 156.988 70.0129 157.299 52.1026L158.188 0.804771L159.076 52.0556C159.386 69.9679 184.367 73.9453 190.187 57.0091L206.848 8.52467L191.882 57.5419C186.652 74.671 209.192 86.1749 219.952 71.8685L250.745 30.9287L221.379 72.929C211.121 87.6002 229.017 105.506 243.666 95.2285L285.582 65.8237L244.673 96.6962C230.39 107.475 241.889 130.031 258.996 124.791L307.949 109.794L259.49 126.502C242.578 132.334 246.554 157.334 264.443 157.645L315.656 158.536L264.397 159.427C246.509 159.738 242.571 184.735 259.49 190.569L307.949 207.277L258.923 192.258C241.813 187.016 230.344 209.562 244.635 220.347L285.582 251.247L243.604 221.799C228.947 211.517 211.073 229.402 221.336 244.08L250.745 286.142L219.924 245.165C209.158 230.851 186.628 242.324 191.86 259.456L206.848 308.546L190.187 260.062C184.364 243.119 159.387 247.058 159.077 264.969L158.188 316.266L157.3 265.016C156.989 247.103 132.009 243.126 126.189 260.062L109.527 308.546L124.494 259.529Z" stroke="#EEEEEE" stroke-width="0.3"/>
</svg>