<svg width="426" height="426" viewBox="0 0 426 426" fill="none" xmlns="http://www.w3.org/2000/svg">
<path id="Star 2" fill-rule="evenodd" clip-rule="evenodd" d="M139.525 297.773C150.784 283.848 134.202 264.741 118.869 273.972L32.1171 326.196L117.004 270.99C132.008 261.232 122.135 237.925 104.706 241.958L6.08812 264.773L103.845 238.546C121.125 233.91 118.927 208.686 101.107 207.126L0.282151 198.3L101.339 203.615C119.202 204.554 124.894 179.882 108.429 172.883L15.2675 133.283L109.734 169.617C126.433 176.039 139.457 154.333 125.957 142.58L49.5773 76.0868L128.212 139.883C142.111 151.159 161.193 134.544 151.979 119.187L99.8531 32.3099L154.96 117.327C164.7 132.353 187.972 122.455 183.946 104.998L161.174 6.23751L187.357 104.157C191.985 121.464 217.169 119.251 218.726 101.401L227.536 0.421856L222.229 101.661C221.292 119.553 245.923 125.244 252.911 108.749L292.445 15.4322L256.164 110.077C249.752 126.805 271.419 139.842 283.154 126.317L349.546 49.7992L285.842 128.582C274.583 142.506 291.165 161.613 306.498 152.383L393.25 100.159L308.363 155.365C293.359 165.123 303.232 188.43 320.662 184.397L419.279 161.581L321.522 187.809C304.243 192.445 306.44 217.669 324.26 219.229L425.085 228.055L324.028 222.74C306.165 221.8 300.473 246.473 316.938 253.472L410.1 293.072L315.633 256.738C298.934 250.316 285.91 272.022 299.41 283.774L375.79 350.268L297.155 286.472C283.256 275.196 264.174 291.811 273.388 307.167L325.514 394.045L270.407 309.028C260.667 294.001 237.396 303.9 241.421 321.357L264.194 420.117L238.01 322.197C233.382 304.891 208.198 307.103 206.641 324.953L197.831 425.933L203.138 324.694C204.076 306.801 179.444 301.111 172.456 317.606L132.922 410.922L169.203 316.277C175.615 299.55 153.948 286.513 142.213 300.038L75.8212 376.555L139.525 297.773Z" stroke="#EEEEEE" stroke-width="0.3"/>
</svg>