<svg width="422" height="423" viewBox="0 0 422 423" fill="none" xmlns="http://www.w3.org/2000/svg">
<path id="Star 2" fill-rule="evenodd" clip-rule="evenodd" d="M227.057 322.544C223.954 304.908 198.644 304.908 195.541 322.544L177.991 422.298L192.078 321.964C194.568 304.231 170.495 296.422 162.101 312.239L114.635 401.679L159.008 310.571C166.848 294.475 146.366 279.617 133.498 292.066L60.7415 362.457L131.084 289.508C143.51 276.622 128.625 256.167 112.542 264.027L21.5855 308.474L111.017 260.854C126.816 252.442 118.989 228.391 101.265 230.888L1 245.013L100.746 227.406C118.371 224.294 118.371 199.004 100.746 195.893L1 178.286L101.265 192.41C118.989 194.907 126.816 170.856 111.017 162.444L21.5855 114.824L112.542 159.272C128.625 167.131 143.51 146.676 131.084 133.79L60.7415 60.841L133.498 131.232C146.366 143.681 166.848 128.824 159.008 112.727L114.635 21.6198L162.101 111.059C170.495 126.877 194.568 119.067 192.078 101.334L177.991 1L195.541 100.754C198.644 118.391 223.954 118.391 227.057 100.754L244.607 1L230.519 101.334C228.03 119.067 252.103 126.877 260.497 111.059L307.962 21.6198L263.589 112.727C255.75 128.824 276.232 143.681 289.099 131.232L361.856 60.841L291.513 133.79C279.088 146.676 293.973 167.131 310.056 159.272L401.012 114.824L311.58 162.444C295.782 170.856 303.609 194.907 321.332 192.41L421.598 178.286L321.852 195.893C304.227 199.004 304.227 224.294 321.852 227.406L421.598 245.013L321.332 230.888C303.609 228.391 295.782 252.442 311.58 260.854L401.012 308.474L310.056 264.027C293.972 256.167 279.088 276.622 291.514 289.508L361.856 362.457L289.099 292.066C276.232 279.617 255.75 294.475 263.589 310.571L307.962 401.679L260.497 312.239C252.103 296.422 228.03 304.231 230.519 321.964L244.607 422.298L227.057 322.544Z" stroke="#EEEEEE" stroke-width="0.3"/>
</svg>