<svg width="203" height="107" fill="none" xmlns="http://www.w3.org/2000/svg">
  <mask id="a" fill="#fff">
    <path fill-rule="evenodd" clip-rule="evenodd" d="M20 21C8.954 21 0 29.954 0 41v37.975c0 11.046 8.954 20 20 20h7.919l7.58 7.581 7.582-7.58h139.744c11.046 0 20-8.955 20-20V41c0-11.046-8.954-20-20-20H20Z"/>
  </mask>
  <path fill-rule="evenodd" clip-rule="evenodd" d="M20 21C8.954 21 0 29.954 0 41v37.975c0 11.046 8.954 20 20 20h7.919l7.58 7.581 7.582-7.58h139.744c11.046 0 20-8.955 20-20V41c0-11.046-8.954-20-20-20H20Z" fill="#fff"/>
  <path d="m27.919 98.975.707-.707-.293-.293h-.414v1Zm7.58 7.581-.706.707.707.708.707-.708-.707-.707Zm7.582-7.58v-1h-.414l-.293.292.707.707ZM1 41c0-10.493 8.507-19 19-19v-2C8.402 20-1 29.402-1 41h2Zm0 37.975V41h-2v37.975h2Zm19 19c-10.493 0-19-8.506-19-19h-2c0 11.598 9.402 21 21 21v-2Zm7.919 0H20v2h7.919v-2Zm8.288 7.874-7.581-7.58-1.414 1.413 7.58 7.581 1.415-1.414Zm6.167-7.58-7.581 7.58 1.414 1.414 7.581-7.58-1.414-1.415Zm140.451-.294H43.081v2h139.744v-2Zm19-19c0 10.494-8.506 19-19 19v2c11.598 0 21-9.402 21-21h-2Zm0-37.975v37.975h2V41h-2Zm-19-19c10.494 0 19 8.507 19 19h2c0-11.598-9.402-21-21-21v2ZM20 22h162.825v-2H20v2Z" fill="#000" mask="url(#a)"/>
  <path d="M181.466 17.852c0 9.607-7.393 17.351-16.459 17.351-9.066 0-16.459-7.744-16.459-17.351C148.548 8.244 155.941.5 165.007.5c9.066 0 16.459 7.744 16.459 17.352Z" fill="#fff" stroke="#000"/>
  <ellipse cx="156.033" cy="17.604" rx="8.033" ry="11.604" fill="#000"/>
  <path d="M151.117 17.852c0 9.633-7.018 17.351-15.567 17.351-8.548 0-15.566-7.718-15.566-17.351C119.984 8.218 127.002.5 135.55.5c8.549 0 15.567 7.718 15.567 17.352Z" fill="#fff" stroke="#000"/>
  <ellipse cx="144.141" cy="17.604" rx="7.141" ry="11.604" fill="#000"/>
  <path d="M30.015 53.897c-1.582 0-2.832-.482-3.75-1.446-.912-.963-1.367-2.301-1.367-4.014 0-1.725.423-3.095 1.27-4.11.852-1.017 1.995-1.524 3.427-1.524 1.341 0 2.402.442 3.184 1.328.78.879 1.171 2.04 1.171 3.486v1.026h-7.373c.033 1.256.349 2.21.948 2.86.605.652 1.455.977 2.549.977a8.62 8.62 0 0 0 3.418-.722v1.445a8.292 8.292 0 0 1-1.631.527c-.508.111-1.123.167-1.846.167Zm-.44-9.737c-.859 0-1.546.28-2.06.84-.508.56-.807 1.335-.899 2.324h5.596c0-1.022-.228-1.803-.683-2.343-.456-.547-1.107-.82-1.954-.82Zm-2.705-4.062c0-.339.085-.583.254-.733a.933.933 0 0 1 .625-.224c.248 0 .46.075.635.224.182.15.273.394.273.733 0 .325-.09.57-.273.732a.922.922 0 0 1-.635.235.91.91 0 0 1-.625-.235c-.169-.163-.254-.407-.254-.732Zm3.721 0c0-.339.085-.583.254-.733a.933.933 0 0 1 .625-.224c.24 0 .45.075.625.224.182.15.273.394.273.733 0 .325-.09.57-.273.732a.91.91 0 0 1-.625.235.91.91 0 0 1-.625-.235c-.17-.163-.254-.407-.254-.732Zm5.234 8.984v-1.484h4.795v1.484h-4.795Zm12.9 3.057.304-.909.42-1.152 2.9-7.06h2.06V53.7h-1.435v-8.838l-.195.567-.567 1.494-2.764 6.777h-1.357l-2.764-6.797c-.345-.872-.582-1.552-.712-2.04V53.7h-1.446V43.018h1.983l2.802 6.787c.28.716.538 1.494.772 2.334Zm18.39-3.8c0 1.746-.44 3.11-1.319 4.093-.879.976-2.093 1.465-3.642 1.465-.958 0-1.807-.225-2.55-.674-.742-.45-1.314-1.094-1.718-1.934-.404-.84-.605-1.823-.605-2.95 0-1.744.436-3.101 1.308-4.071.873-.977 2.083-1.465 3.633-1.465 1.497 0 2.685.498 3.564 1.494.886.996 1.329 2.344 1.329 4.043Zm-8.155 0c0 1.368.274 2.41.82 3.126.547.716 1.351 1.074 2.413 1.074 1.06 0 1.865-.355 2.412-1.064.553-.717.83-1.761.83-3.135 0-1.36-.277-2.393-.83-3.096-.547-.71-1.358-1.064-2.432-1.064-1.061 0-1.862.348-2.402 1.045-.54.696-.81 1.735-.81 3.115Zm15.527 5.558c-1.581 0-2.831-.482-3.75-1.446-.91-.963-1.367-2.301-1.367-4.014 0-1.725.423-3.095 1.27-4.11.853-1.017 1.995-1.524 3.428-1.524 1.34 0 2.402.442 3.183 1.328.781.879 1.172 2.04 1.172 3.486v1.026H71.05c.033 1.256.348 2.21.947 2.86.606.652 1.455.977 2.55.977a8.62 8.62 0 0 0 3.417-.722v1.445a8.29 8.29 0 0 1-1.63.527c-.509.111-1.124.167-1.847.167Zm-.439-9.737c-.86 0-1.546.28-2.06.84-.508.56-.808 1.335-.899 2.324h5.596c0-1.022-.228-1.803-.684-2.343-.456-.547-1.107-.82-1.953-.82Zm-2.705-4.062c0-.339.085-.583.254-.733a.933.933 0 0 1 .625-.224c.247 0 .459.075.635.224.182.15.273.394.273.733 0 .325-.091.57-.273.732a.923.923 0 0 1-.635.235.91.91 0 0 1-.625-.235c-.17-.163-.254-.407-.254-.732Zm3.72 0c0-.339.085-.583.255-.733a.933.933 0 0 1 .625-.224c.24 0 .449.075.625.224.182.15.273.394.273.733 0 .325-.091.57-.273.732a.91.91 0 0 1-.625.235.91.91 0 0 1-.625-.235c-.17-.163-.254-.407-.254-.732Zm7.833 11.279.146.225c-.169.65-.413 1.406-.732 2.265-.32.866-.651 1.67-.996 2.412h-1.221c.176-.677.368-1.513.576-2.51.215-.996.365-1.793.45-2.392h1.777Zm14.638-8.379h1.778l-4.62 5.166 5 5.537h-1.894l-4.883-5.42v5.42h-1.62V42.998h1.62v5.205l4.62-5.205Zm10.733 10.703-.322-1.523h-.079c-.533.67-1.067 1.126-1.601 1.367-.527.234-1.188.352-1.983.352-1.061 0-1.894-.274-2.5-.82-.598-.548-.898-1.326-.898-2.335 0-2.161 1.729-3.294 5.186-3.398l1.816-.059v-.664c0-.84-.182-1.458-.547-1.855-.358-.404-.934-.606-1.728-.606-.892 0-1.901.274-3.028.82l-.498-1.24a7.658 7.658 0 0 1 1.729-.674 7.558 7.558 0 0 1 1.894-.244c1.276 0 2.22.283 2.832.85.619.566.928 1.475.928 2.725V53.7h-1.201Zm-3.662-1.142c1.009 0 1.8-.277 2.373-.83.579-.554.869-1.329.869-2.325v-.967l-1.621.069c-1.289.045-2.22.247-2.793.605-.567.352-.85.902-.85 1.65 0 .587.176 1.033.528 1.339.358.306.856.459 1.494.459Zm14.453-9.561h1.777l-4.619 5.166 5 5.537h-1.894l-4.883-5.42v5.42h-1.621V42.998h1.621v5.205l4.619-5.205Zm14.228.02h1.495v5.185l4.423-5.185h1.778l-4.473 5.185 4.854 5.498h-1.875l-4.707-5.42v5.42h-1.495v-5.42l-4.697 5.42h-1.865l4.844-5.498-4.463-5.185h1.777l4.404 5.185v-5.185Zm14.366 10.879c-1.582 0-2.832-.482-3.75-1.446-.912-.963-1.368-2.301-1.368-4.014 0-1.725.424-3.095 1.27-4.11.853-1.017 1.995-1.524 3.428-1.524 1.341 0 2.402.442 3.183 1.328.782.879 1.172 2.04 1.172 3.486v1.026h-7.373c.033 1.256.348 2.21.947 2.86.606.652 1.455.977 2.549.977 1.153 0 2.292-.24 3.418-.722v1.445a8.278 8.278 0 0 1-1.631.527c-.507.111-1.123.167-1.845.167Zm-.44-9.737c-.859 0-1.546.28-2.06.84-.508.56-.808 1.335-.899 2.324h5.596c0-1.022-.228-1.803-.684-2.343-.455-.547-1.106-.82-1.953-.82ZM31.734 63.998h1.777l-4.62 5.166 5 5.537h-1.894l-4.883-5.42v5.42h-1.62V63.998h1.62v5.205l4.62-5.205Zm9.13 10.899a4.718 4.718 0 0 1-1.914-.381 3.638 3.638 0 0 1-1.445-1.192h-.117c.078.625.117 1.218.117 1.778v4.404h-1.621V63.998h1.318l.225 1.465h.078c.417-.586.902-1.01 1.455-1.27.554-.26 1.188-.39 1.904-.39 1.42 0 2.514.485 3.282 1.455.774.97 1.162 2.33 1.162 4.082 0 1.758-.394 3.125-1.182 4.101-.781.97-1.868 1.456-3.261 1.456Zm-.234-9.717c-1.094 0-1.885.302-2.373.908-.488.605-.739 1.569-.752 2.89v.362c0 1.504.25 2.581.752 3.232.501.645 1.305.967 2.412.967.925 0 1.647-.374 2.168-1.123.527-.749.791-1.78.791-3.096 0-1.334-.264-2.356-.79-3.066-.522-.716-1.257-1.074-2.208-1.074Zm5.82-1.182h1.739l2.343 6.104c.515 1.393.834 2.399.958 3.017h.078c.084-.332.26-.898.527-1.7.273-.806 1.159-3.28 2.656-7.421h1.739l-4.6 12.188c-.456 1.204-.99 2.057-1.602 2.558-.605.508-1.35.762-2.236.762a6.52 6.52 0 0 1-1.465-.166V78.04c.358.078.759.117 1.201.117 1.114 0 1.908-.625 2.383-1.875l.596-1.523-4.317-10.762Zm18.995 1.387h-3.477V74.7h-1.621v-9.316h-3.438v-1.387h8.536v1.387Zm11.357 3.955c0 1.745-.44 3.109-1.318 4.092-.88.976-2.093 1.465-3.643 1.465-.957 0-1.807-.225-2.549-.674-.742-.45-1.315-1.094-1.719-1.934-.403-.84-.605-1.823-.605-2.95 0-1.744.436-3.101 1.309-4.071.872-.977 2.083-1.465 3.632-1.465 1.498 0 2.686.498 3.565 1.494.885.996 1.328 2.344 1.328 4.043Zm-8.154 0c0 1.367.273 2.409.82 3.125.547.716 1.35 1.074 2.412 1.074 1.061 0 1.865-.355 2.412-1.064.554-.716.83-1.761.83-3.135 0-1.36-.276-2.393-.83-3.096-.547-.71-1.357-1.064-2.431-1.064-1.062 0-1.862.348-2.403 1.045-.54.696-.81 1.735-.81 3.115Z" fill="#000"/>
</svg>