<svg xmlns="http://www.w3.org/2000/svg" fill="none" viewBox="0 0 247 222"><path fill="#848485" stroke="#000" d="M245.158 179.904c0 5.428-3.295 10.678-9.437 15.526-6.136 4.843-15.047 9.227-26.103 12.918-22.106 7.379-52.677 11.952-86.468 11.952-33.79 0-64.361-4.573-86.467-11.952-11.056-3.691-19.967-8.075-26.103-12.918-6.143-4.848-9.437-10.098-9.437-15.526 0-5.428 3.294-10.679 9.437-15.526 6.136-4.844 15.047-9.227 26.103-12.918 22.106-7.379 52.677-11.952 86.467-11.952 33.791 0 64.362 4.573 86.468 11.952 11.056 3.691 19.967 8.074 26.103 12.918 6.142 4.847 9.437 10.098 9.437 15.526z"/><mask id="a" width="246" height="82" x="0" y="139" maskUnits="userSpaceOnUse" style="mask-type:alpha"><path fill="#000" stroke="#000" d="M245.158 179.904c0 5.428-3.295 10.678-9.437 15.526-6.136 4.843-15.047 9.227-26.103 12.918-22.106 7.379-52.677 11.952-86.468 11.952-33.79 0-64.361-4.573-86.467-11.952-11.056-3.691-19.967-8.075-26.103-12.918-6.143-4.848-9.437-10.098-9.437-15.526 0-5.428 3.294-10.679 9.437-15.526 6.136-4.844 15.047-9.227 26.103-12.918 22.106-7.379 52.677-11.952 86.467-11.952 33.791 0 64.362 4.573 86.468 11.952 11.056 3.691 19.967 8.074 26.103 12.918 6.142 4.847 9.437 10.098 9.437 15.526z"/></mask><g mask="url(#a)"><path fill="#000" stroke="#000" d="M245.158 196.944c0 5.428-3.295 10.678-9.437 15.526-6.136 4.843-15.047 9.227-26.103 12.918-22.106 7.379-52.677 11.952-86.468 11.952-33.79 0-64.361-4.573-86.467-11.952-11.056-3.691-19.967-8.075-26.103-12.918-6.143-4.848-9.437-10.098-9.437-15.526 0-5.428 3.294-10.678 9.437-15.526 6.136-4.843 15.047-9.227 26.103-12.918 22.106-7.379 52.677-11.952 86.467-11.952 33.791 0 64.362 4.573 86.468 11.952 11.056 3.691 19.967 8.075 26.103 12.918 6.142 4.848 9.437 10.098 9.437 15.526z"/></g><path fill="#D9D9D9" d="M16.322 197.63c-1.335 6.649 50.678 18.911 59.185 18.911 0 0 14.463 4.26 53.598 4.26 39.134 0 61.251-7.668 61.251-7.668 22.12-5.964 46.206-10.658 42.137-24.429-4.069-13.771-12.292-14.238-15.895-12.751 2.967-1.487 7.757-6.885 3.179-16.575-4.578-9.691-12.504-9.563-15.895-8.288 2.12-1.063 5.468-6.63 1.908-20.401-3.561-13.771-20.134-17.639-27.975-17.851l-81.382-1.275c-8.265-.85-27.975.255-40.69 11.476-12.716 11.22-9.143 21.729-4.904 25.342-2.332-.425-6.286-.224-10.355 5.897-4.07 6.12-2.968 14.875-1.908 18.488-3.391 1.913-20.92 18.215-22.254 24.864z"/><path stroke="#000" d="M42.569 177.552c-3.304-2.778-7.992-10.63-3.097-21.16 3.634-7.817 9.943-9.507 12.213-8.011"/><path stroke="#000" d="M15.95 198.649c.429-9.188-5.934 8.146 4.346-7.879 7.455-11.621 16.277-16.238 18.633-17.948m22.701-15.831c-7.239-3.434-19.907-13.65-12.668-27.043 2.816-5.58 14.238-16.612 37.403-16.097 23.164.516 40.618 5.795 46.449 8.371 5.429-4.293 22.561-11.976 47.656-8.371 25.095 3.606 28.151 22.107 26.543 30.907-1.306 7.144-8.566 14.423-18.701 15.453"/><path stroke="#000" d="M213.982 180.442a39.1 39.1 0 0 0 5.041-7.45m-13.232-23.817c13.232 1.914 18.292 14.038 13.232 23.817m0 0c11.503 4.825 13.555 9.064 15.574 23.101m-142.93 23.003c-1.507-16.93-1.26-26.391.03-42.259a4.084 4.084 0 0 1 4.071-3.749c2.452 0 4.35 2.145 4.09 4.584-1.654 15.477-1.553 25.433.52 42.07m59.351-.646c1.529-17.165 1.121-25.521-.183-41.861-.139-1.737-1.933-3.088-4.095-3.088-2.427 0-4.324 1.687-4.11 3.634 1.76 16.025 1.995 25.193-.119 42.168"/><path fill="#80D994" stroke="#000" d="M53.594 31.387a3.103 3.103 0 0 1 3.103-3.103h22.658v24.224h-4.64c-11.665 0-21.121-9.457-21.121-21.121z"/><path fill="#FEAFE8" stroke="#000" d="M101.529 125.876h48.343v34.784H101.53z"/><path fill="#FEAFE8" stroke="#000" d="M74.059 39.56c0-20.159 16.341-36.5 36.5-36.5h29.895c20.158 0 36.5 16.341 36.5 36.5v71.037c0 20.158-16.342 36.5-36.5 36.5h-29.895c-20.159 0-36.5-16.342-36.5-36.5V39.56z"/><path fill="#F1C049" stroke="#000" d="M70.912 37.984c0-20.158 16.342-36.5 36.5-36.5h34.618c20.159 0 36.5 16.342 36.5 36.5v14.524H70.912V37.984z"/><path fill="#FEAFE8" stroke="#000" d="M60.023 87.691c0-7.56 6.129-13.688 13.689-13.688h1.053v27.376h-1.053c-7.56 0-13.689-6.128-13.689-13.688zm132.676 0c0-7.56-6.128-13.688-13.688-13.688h-2.628v27.376h2.628c7.56 0 13.688-6.128 13.688-13.688z"/><path fill="#000" stroke="#000" d="M127.871 20.402c-7.983 0-14.455 6.471-14.455 14.454v3.464h28.909v-3.464c0-7.983-6.471-14.454-14.454-14.454z"/><ellipse cx="115.277" cy="44.338" fill="#000" rx="2.361" ry="2.365"/><ellipse cx="127.871" cy="44.338" fill="#000" rx="2.361" ry="2.365"/><ellipse cx="140.465" cy="44.338" fill="#000" rx="2.361" ry="2.365"/><path stroke="#000" d="M133.379 93.998c0 4.353-3.172 7.882-7.084 7.882-3.913 0-7.084-3.53-7.084-7.883m-13.666-56.253h38.843a7.382 7.382 0 0 1 0 14.765h-38.843V37.744z"/><path fill="#D9D9D9" d="M125.701 160.309c-6.806-4.772-29.493-15.336-39.135-18.744l10.21 24.708 35.731 12.78 18.716-6.816c11.06-7.1 27.565-20.789 5.105-18.744-28.075 2.556-28.196 8.52-30.627 6.816z"/><path stroke="#000" d="M94.225 144.12c12.194 5.396 36.922 17.551 38.283 23.004m-6.806-6.816c3.687-1.42 15.654-4.601 27.224-5.964m46.794 58.787c.851-2.84 2.042-10.053 0-16.188"/><path stroke="#000" d="M245.658 179.904c0 22.586-54.848 40.896-122.508 40.896C55.491 220.8.643 202.49.643 179.904m95.283-57.937c14.179-3.124 47.982-9.372 69.761-9.372"/><path fill="#D9D9D9" stroke="#000" d="M91.32 62.827h65.359v24.56H91.32z"/><path fill="#D9D9D9" stroke="#000" d="M155.979 67.94h7.507v14.335h-7.507z"/><path fill="#FD24AF" stroke="#000" d="M96.426 67.94h7.507v14.335h-7.507z"/></svg>