<svg xmlns="http://www.w3.org/2000/svg" fill="none" viewBox="0 0 131 129"><path fill="#D9D9D9" d="M2.215 115.402C1.431 119.304 32 126.5 37 126.5c0 0 8.5 2.5 31.5 2.5s35.999-4.5 35.999-4.5c13-3.5 27.156-6.255 24.765-14.336-2.392-8.082-7.225-8.356-9.342-7.483 1.744-.873 4.559-4.04 1.868-9.727-2.69-5.687-7.349-5.613-9.341-4.864 1.245-.624 3.213-3.891 1.121-11.973-2.093-8.081-11.833-10.35-16.442-10.476l-47.83-.748c-4.857-.498-16.44.15-23.914 6.735C17.91 78.213 20.01 84.38 22.501 86.5c-1.37-.25-3.694-.131-6.086 3.46-2.391 3.592-1.744 8.73-1.12 10.851C13.3 101.933 3 111.5 2.214 115.402z"/><path stroke="#000" d="M17.641 103.619c-1.941-1.63-4.697-6.238-1.82-12.417 2.136-4.588 5.844-5.58 7.178-4.702"/><path stroke="#000" d="M1.998 116c.251-5.392-3.488 4.781 2.554-4.624 4.381-6.82 9.566-9.529 10.95-10.532m13.342-9.29c-4.255-2.016-11.7-8.011-7.445-15.871 1.655-3.275 8.368-9.749 21.982-9.447 13.614.303 23.872 3.401 27.3 4.913 3.19-2.52 13.259-7.029 28.007-4.912 14.749 2.116 16.545 12.973 15.6 18.137-.768 4.193-5.035 8.464-10.991 9.069"/><path stroke="#000" d="M118.385 105.315a22.971 22.971 0 0 0 2.962-4.372m-7.776-13.977c7.776 1.123 10.75 8.238 7.776 13.977m0 0c6.76 2.832 7.967 5.319 9.153 13.557M46.499 128c-.886-9.934-.741-15.487.017-24.797A2.4 2.4 0 0 1 48.91 101c1.44 0 2.556 1.261 2.403 2.694-.971 9.08-.912 14.923.306 24.685M86.5 128c.898-10.074.658-14.978-.108-24.566-.081-1.02-1.136-1.813-2.406-1.813-1.427 0-2.541.99-2.416 2.133 1.034 9.404 1.173 14.784-.07 24.746"/><path fill="#80D994" stroke="#000" d="M24.33 17.842c0-.892.722-1.615 1.614-1.615h13.113V30.03h-2.54c-6.731 0-12.188-5.457-12.188-12.188z"/><path fill="#FEAFE8" stroke="#000" d="M52.5 73.5h28v20h-28z"/><path fill="#FEAFE8" stroke="#000" d="M36.356 31.455c0-16.585 13.445-30.03 30.03-30.03 16.586 0 30.032 13.445 30.032 30.03V55.51c0 16.585-13.446 30.03-30.031 30.03-16.586 0-30.03-13.445-30.03-30.03V31.455z"/><path fill="#F1C049" stroke="#000" d="M34.51 30.03C34.777 13.677 48.118.5 64.537.5h2.775c16.419 0 29.76 13.176 30.027 29.53H34.51z"/><path fill="#FEAFE8" stroke="#000" d="M28.105 50.884a7.827 7.827 0 0 1 7.826-7.826h.425V58.71h-.425a7.827 7.827 0 0 1-7.826-7.827zm77.564 0a7.826 7.826 0 0 0-7.826-7.826h-1.35V58.71h1.35a7.826 7.826 0 0 0 7.826-7.827z"/><path fill="#000" stroke="#000" d="M67.775 11.602a8.29 8.29 0 0 0-8.29 8.289v1.813h16.579V19.89a8.289 8.289 0 0 0-8.29-8.29z"/><circle cx="60.373" cy="25.442" r="1.388" fill="#000"/><circle cx="67.775" cy="25.442" r="1.388" fill="#000"/><circle cx="75.176" cy="25.442" r="1.388" fill="#000"/><path stroke="#000" d="M71.013 54.585c0 2.555-1.864 4.626-4.164 4.626-2.299 0-4.163-2.071-4.163-4.626M54.86 21.779h22.629a4.126 4.126 0 0 1 0 8.252h-22.63v-8.252z"/><circle cx="56.21" cy="44.408" r="9.252" fill="#fff" stroke="#000"/><circle cx="78.414" cy="44.408" r="9.252" fill="#fff" stroke="#000"/><circle cx="78.312" cy="38.313" r="2.313" fill="#000"/><circle cx="55.312" cy="38.313" r="2.313" fill="#000"/><path stroke="#000" d="M81.19 74.013a5.551 5.551 0 0 0 0-11.102"/><circle cx="81.19" cy="68.463" r="2.776" fill="#000"/><path fill="#D9D9D9" d="M66.5 93.5c-4-2.8-17.333-9-23-11l6 14.5 21 7.5 11-4c6.5-4.167 16.2-12.2 3-11-16.5 1.5-16.571 5-18 4z"/><path stroke="#000" d="M48 84c7.167 3.167 21.7 10.3 22.5 13.5m-4-4c2.167-.833 9.2-2.7 16-3.5"/></svg>