<svg fill="none" xmlns="http://www.w3.org/2000/svg" viewBox="0 0 101 104"><path d="M93.895 46.217c3.366 24.72-14.317 47.539-39.52 50.95C29.175 100.58 6.029 83.29 2.662 58.57-.706 33.85 16.978 11.03 42.18 7.619c25.202-3.413 48.348 13.878 51.715 38.598Z" fill="#6FC1FD" stroke="#000"/><mask id="a" fill="#fff"><path fill-rule="evenodd" clip-rule="evenodd" d="M75.997 15.734C67.05 25.402 62.34 38.744 64.24 52.689c1.723 12.654 8.558 23.38 18.183 30.444-7.093 7.665-16.85 13.023-28.086 14.544-10.933 1.48-21.486-.912-30.233-6.11 7.707-9.445 11.626-21.852 9.865-34.779-1.94-14.244-10.357-26.047-21.94-32.93 7.2-8.822 17.706-15.06 29.977-16.721 12.55-1.7 24.6 1.704 33.991 8.597Z"/></mask><path fill-rule="evenodd" clip-rule="evenodd" d="M75.997 15.734C67.05 25.402 62.34 38.744 64.24 52.689c1.723 12.654 8.558 23.38 18.183 30.444-7.093 7.665-16.85 13.023-28.086 14.544-10.933 1.48-21.486-.912-30.233-6.11 7.707-9.445 11.626-21.852 9.865-34.779-1.94-14.244-10.357-26.047-21.94-32.93 7.2-8.822 17.706-15.06 29.977-16.721 12.55-1.7 24.6 1.704 33.991 8.597Z" fill="#6FC1FD"/><path d="m75.997 15.734.735.679.76-.822-.903-.663-.592.806Zm6.426 67.399.734.68.76-.823-.903-.663-.591.806Zm-58.32 8.434-.774-.633-.734.9.998.592.51-.86ZM12.03 23.857l-.775-.632-.733.9.998.592.51-.86Zm29.977-16.72-.135-.99.135.99Zm33.257 7.917c-9.139 9.876-13.956 23.512-12.014 37.77l1.982-.27c-1.857-13.633 2.746-26.68 11.5-36.141l-1.468-1.359Zm-12.014 37.77c1.762 12.935 8.75 23.9 18.582 31.115l1.183-1.612c-9.417-6.91-16.098-17.4-17.783-29.772l-1.982.268Zm18.44 29.63c-6.94 7.5-16.487 12.743-27.486 14.232l.27 1.982c11.473-1.553 21.438-7.025 28.684-14.856l-1.469-1.358ZM54.202 96.686c-10.703 1.45-21.03-.893-29.589-5.979l-1.02 1.72c8.935 5.31 19.715 7.752 30.878 6.241l-.27-1.982ZM24.878 92.2c7.873-9.648 11.881-22.33 10.081-35.545l-1.982.268c1.722 12.639-2.108 24.771-9.65 34.012l1.55 1.265ZM34.96 56.654C32.977 42.09 24.37 30.029 12.54 22.998l-1.021 1.72c11.335 6.735 19.563 18.278 21.46 32.204l1.981-.268ZM12.804 24.49C19.85 15.858 30.128 9.754 42.141 8.128l-.27-1.982c-12.53 1.697-23.262 8.067-30.617 17.08l1.55 1.264ZM42.141 8.128c12.285-1.664 24.075 1.668 33.265 8.412l1.183-1.612C66.994 7.887 54.686 4.41 41.87 6.146l.27 1.982Z" fill="#000" mask="url(#a)"/><path d="M53.54 96.345 41.403 7.22M3.586 58.444l89.387-12.103" stroke="#000"/></svg>