<svg xmlns="http://www.w3.org/2000/svg" fill="none" stroke="currentColor" stroke-linecap="round" stroke-linejoin="round" stroke-width="2" class="lucide lucide-heart" viewBox="0 0 500 500">
  <ellipse cx="261" cy="406" rx="42" ry="5" fill="#000"/>
    <path d="M343 128.999c-15.5-18.5-38-35-63-41.5 50-9.999 90.5 52 98.5 67.5-11.6-15.6-28.5-23.833-35.5-26Z" fill="#fff" stroke="#000" stroke-linejoin="round"/>
    <path d="M412.742 210.908c1.033 16.294-2.519 31.308-9.071 42.408-6.553 11.103-16.074 18.244-26.982 18.935-5.572.353-10.122.502-13.905-.378-3.745-.871-6.741-2.752-9.199-6.509-2.475-3.786-4.415-9.491-5.97-18.028-1.553-8.53-2.715-19.839-3.663-34.799-.845-13.327-1.047-23.534-.532-31.372.515-7.845 1.747-13.271 3.739-17.065 1.977-3.769 4.717-5.953 8.331-7.293 3.644-1.351 8.177-1.846 13.741-2.199 10.909-.691 21.255 5.19 29.158 15.377 7.901 10.184 13.32 24.629 14.353 40.923Z" fill="#000" stroke="#000"/>
    <path d="M380.564 270.128c-33.626 62.471-88.545 97.624-115.95 109.161-72.252-23.549-165.11-130.547-146.264-187.817 34.415-104.582 118.037-65.738 150.045-36.19 79.364-79.619 161.323 23.531 112.169 114.846Z" fill="#fff"/>
    <path d="M268.395 155.282c79.364-79.619 161.323 23.531 112.169 114.846-33.626 62.471-88.545 97.624-115.95 109.161-72.252-23.549-165.11-130.547-146.264-187.817 34.415-104.582 118.037-65.738 150.045-36.19Zm0 0 11.77 12.323" stroke="#000" stroke-linejoin="round"/>
    <path d="M372.107 142.965c-58.387-86.099-186.63-54.899-246.409 35.356l-20.921-6.319c24.236-71.669 188.677-157.744 267.33-29.037 4.27 6.296 8.166 13.22 11.635 20.793.037.053.034.051.009.021a162.443 162.443 0 0 1 2.685 6.206c-4.258-8.119-2.868-6.426-2.685-6.206l-.009-.021c-.111-.159-.581-.823-1.88-2.767-3.077-6.427-6.335-12.43-9.755-18.026Z" fill="#000"/>
    <path d="M125.698 178.321c65.322-98.623 212.391-126.733 260.738-8.336-6.58-12.549.328-1.659-4.574-8.994-73.843-154.246-251.795-63.774-277.085 11.011l20.921 6.319Z" stroke="#000" stroke-linejoin="round"/>
    <path d="M169.284 226.346c1.032 16.287-2.482 31.292-8.971 42.383-6.491 11.094-15.925 18.224-26.736 18.909-5.523.35-10.033.496-13.782-.385-3.711-.872-6.682-2.753-9.12-6.509-2.457-3.785-4.383-9.489-5.929-18.023-1.544-8.526-2.702-19.83-3.65-34.783-.844-13.32-1.05-23.522-.543-31.356.507-7.84 1.726-13.264 3.698-17.055 1.959-3.765 4.673-5.946 8.253-7.283 3.611-1.348 8.104-1.84 13.62-2.19 10.81-.685 21.069 5.197 28.909 15.382 7.838 10.183 13.218 24.623 14.251 40.91Z" fill="#000" stroke="#000"/>
    <path d="M148.449 227.666c1.033 16.287-2.481 31.292-8.97 42.383-6.492 11.094-15.925 18.224-26.736 18.909-10.811.685-21.069-5.196-28.91-15.382-7.837-10.182-13.218-24.623-14.25-40.91-1.032-16.287 2.481-31.292 8.97-42.383 6.492-11.094 15.926-18.224 26.736-18.909 10.811-.685 21.069 5.197 28.91 15.382 7.838 10.183 13.218 24.623 14.25 40.91Z" fill="#fff" stroke="#000"/>
    <path d="M131.955 228.713c.709 11.18-1.689 21.472-6.113 29.072-4.426 7.603-10.844 12.463-18.178 12.927-7.334.465-14.314-3.545-19.665-10.528-5.348-6.98-9.026-16.887-9.735-28.067-.709-11.181 1.69-21.473 6.113-29.073 4.427-7.603 10.845-12.462 18.178-12.927 7.334-.465 14.314 3.545 19.665 10.529 5.348 6.98 9.027 16.887 9.735 28.067Z" fill="#000" stroke="#000"/>
    <path d="M203.196 220.746c11.227 14.129 39.537 33.77 62.96-.693M299.534 218.578c11.066 14.139 38.955 33.807 61.98-.631M260.729 274.199c7.582 10.12 26.66 24.222 42.31-.326" stroke="#000" stroke-linejoin="round"/>
</svg>