<svg xmlns="http://www.w3.org/2000/svg" fill="none" stroke="currentColor" stroke-linecap="round" stroke-linejoin="round" stroke-width="2" class="lucide lucide-thumbs-up" viewBox="0 0 500 500">
  <path d="M425.07 388.715c-61.432 15.121-139.452 18.022-157.07 17.143L361.5 364c40.888 2.271 125.002 9.594 63.57 24.715Z" fill="#000" stroke="#000" stroke-linejoin="round"/>
    <path d="M362.5 379c-28.5 27-81.185 28.333-116.851 26.5-10.207 7.496-25.73 13.037-48.149 14-65.2 2.8-70.167-28.754-64.5-44.88-32.278-11.095-29.188-35.216-21-49.108-17.469-13.547-14.04-33.821-7.043-46.512-2.706-3.662-4.739-7.971-5.957-13-12.4-51.2 72.5-67.333 116.5-69-40-50-20.635-129.06-2.5-136.5 19.5-8 31.5 0 46.5 61.5s63 64.5 102.5 102 34.83 122.477.5 155Z" fill="#fff"/>
    <path d="M245.649 405.5C281.315 407.333 334 406 362.5 379c34.33-32.523 39-117.5-.5-155s-87.5-40.5-102.5-102-27-69.5-46.5-61.5c-18.135 7.44-37.5 86.5 2.5 136.5m0 0H226m-10.5 0c-44 1.666-128.9 17.8-116.5 69 1.218 5.029 3.251 9.338 5.957 13M146 239.5c66.5-5.5 89.5-3 93 17 1.235 7.055 1.826 14.63-14.5 22.5m-119.543 0c21.719 29.385 84.153 17.059 119.543 0m-119.543 0c-6.997 12.691-10.426 32.965 7.043 46.512M224.5 279c18 7 23.862 27 6.5 40m-119 6.512c11.207 8.691 31.383 18.942 64 13.988 39.5-6 46.303-13.988 55-20.5m-119 6.512c-8.188 13.892-11.278 38.013 21 49.108M231 319c16-1.5 23.401 17.578 13.5 34.5M133 374.62c11.086 3.81 26.521 8.586 47 5.88 44.5-5.88 57.399-14.865 64.5-27M133 374.62c-5.667 16.126-.7 47.68 64.5 44.88 81.5-3.5 71.862-67.5 47-66" stroke="#000" stroke-linejoin="round"/>
    <path d="M330.935 258.076c0 20.722-17.974 37.576-40.217 37.576-22.244 0-40.218-16.854-40.218-37.576s17.974-37.576 40.218-37.576c22.243 0 40.217 16.854 40.217 37.576Z" fill="#fff" stroke="#000"/>
    <path d="M405.935 258.076c0 20.722-17.974 37.576-40.218 37.576-22.244 0-40.217-16.854-40.217-37.576s17.973-37.576 40.217-37.576 40.218 16.854 40.218 37.576Z" fill="#fff" stroke="#000"/>
    <mask id="a" style="mask-type:alpha" maskUnits="userSpaceOnUse" x="325" y="220" width="82" height="77">
      <path d="M405.936 258.076c0 20.722-17.974 37.576-40.218 37.576-22.244 0-40.218-16.854-40.218-37.576s17.974-37.576 40.218-37.576c22.244 0 40.218 16.854 40.218 37.576Z" fill="#fff" stroke="#000"/>
    </mask>
    <g mask="url(#a)">
      <ellipse cx="350.5" cy="243.5" rx="11.5" ry="12.5" fill="#000"/>
    </g>
    <ellipse cx="294.5" cy="242.5" rx="11.5" ry="12.5" fill="#000"/>
    <path d="M309 317.5c8.167 5.167 28.9 11.9 46.5-2.5" stroke="#000" stroke-linejoin="round"/>
</svg>