<svg xmlns="http://www.w3.org/2000/svg" fill="none" viewBox="0 0 118 206"><path fill="#feafe8" stroke="#000" d="M1 54.183 109.96 33l5.725 29.449L6.725 83.632z"/><path fill="#fff" stroke="#000" d="M111.663 20.395c1.431 10.98-5.841 20.933-16.18 22.28-10.338 1.347-19.918-6.409-21.35-17.389-1.43-10.98 5.842-20.932 16.18-22.28 10.338-1.347 19.919 6.41 21.35 17.389Z"/><mask id="a" fill="#fff"><path fill-rule="evenodd" d="M81.837 5.832a18.52 18.52 0 0 1 8.415-3.321c10.366-1.351 19.946 6.19 21.782 16.967-2.58 3.838-6.625 6.556-11.427 7.181-9.16 1.194-17.606-5.676-18.867-15.345-.244-1.876-.2-3.72.097-5.482Z" clip-rule="evenodd"/></mask><path fill="#000" fill-rule="evenodd" d="M81.837 5.832a18.52 18.52 0 0 1 8.415-3.321c10.366-1.351 19.946 6.19 21.782 16.967-2.58 3.838-6.625 6.556-11.427 7.181-9.16 1.194-17.606-5.676-18.867-15.345-.244-1.876-.2-3.72.097-5.482Z" clip-rule="evenodd"/><path fill="#000" d="m81.837 5.832-.582-.813-.336.24-.068.407.986.166Zm30.197 13.646.83.558.223-.332-.067-.394-.986.168ZM82.419 6.645a17.52 17.52 0 0 1 7.962-3.143l-.258-1.983c-3.3.43-6.308 1.668-8.868 3.5l1.164 1.626Zm7.962-3.143c9.785-1.275 18.913 5.847 20.667 16.144l1.972-.336C111.102 8.055 101.07.092 90.123 1.52l.258 1.982Zm20.823 15.418c-2.432 3.618-6.23 6.162-10.726 6.748l.259 1.983c5.108-.666 9.399-3.557 12.127-7.615l-1.66-1.116Zm-10.726 6.748c-8.562 1.116-16.55-5.31-17.746-14.483l-1.983.259c1.325 10.165 10.23 17.479 19.988 16.207l-.259-1.983ZM82.732 11.185a17.541 17.541 0 0 1 .09-5.187l-1.971-.332a19.546 19.546 0 0 0-.102 5.778l1.983-.259Z" mask="url(#a)"/><path fill="#fff" stroke="#000" d="M77.561 25.04c1.431 10.98-5.841 20.932-16.18 22.28-10.338 1.347-19.918-6.41-21.349-17.39-1.43-10.98 5.841-20.932 16.18-22.28C66.55 6.304 76.13 14.06 77.56 25.04Z"/><mask id="b" fill="#fff"><path fill-rule="evenodd" d="M47.73 10.478a18.52 18.52 0 0 1 8.415-3.322c10.366-1.35 19.946 6.191 21.782 16.968-2.58 3.837-6.625 6.555-11.427 7.18C57.34 32.5 48.893 25.63 47.633 15.96c-.244-1.877-.2-3.72.097-5.482Z" clip-rule="evenodd"/></mask><path fill="#000" fill-rule="evenodd" d="M47.73 10.478a18.52 18.52 0 0 1 8.415-3.322c10.366-1.35 19.946 6.191 21.782 16.968-2.58 3.837-6.625 6.555-11.427 7.18C57.34 32.5 48.893 25.63 47.633 15.96c-.244-1.877-.2-3.72.097-5.482Z" clip-rule="evenodd"/><path fill="#000" d="m47.73 10.478-.582-.813-.336.24-.069.407.987.166Zm30.197 13.646.83.558.223-.332-.068-.394-.985.168ZM48.312 11.29a17.52 17.52 0 0 1 7.962-3.143l-.258-1.983a19.52 19.52 0 0 0-8.868 3.5l1.164 1.626Zm7.962-3.143c9.784-1.275 18.912 5.847 20.667 16.144l1.971-.336C76.995 12.7 66.963 4.738 56.016 6.165l.258 1.983Zm20.823 15.418c-2.432 3.617-6.23 6.161-10.726 6.747l.258 1.984c5.109-.666 9.4-3.558 12.128-7.615l-1.66-1.116ZM66.37 30.313c-8.562 1.116-16.55-5.31-17.746-14.482l-1.983.258c1.325 10.165 10.23 17.48 19.987 16.208l-.258-1.984ZM48.625 15.831a17.54 17.54 0 0 1 .09-5.187l-1.972-.332a19.543 19.543 0 0 0-.101 5.777l1.983-.258Z" mask="url(#b)"/><ellipse cx="49.134" cy="48.267" fill="#feafe8" rx="10.775" ry="9.159" transform="rotate(8.788 49.134 48.267)"/><path stroke="#000" d="M59.783 49.913c.773-4.999-3.368-9.788-9.25-10.697-5.88-.91-11.275 2.406-12.048 7.405M40 153v21.61l-16-16.207L10 205h38c0-3.602-4-10.94-20-11.481"/><path stroke="#000" d="M52 153v27.557c-.703 6.722-5.06 10.889-14.054 6.05-.857-.461-1.362-.91-2.108-1.345M26 175.852l9.838 9.41M33.73 194l2.108-8.738M58 153l28.506 15.737L67.944 205H117c-.884-4.789-5.436-14.505-16.573-15.053-11.137-.547-15.247-.228-15.91 0"/><path stroke="#000" d="m80 153 16.115 7.403a7 7 0 0 1 3.189 9.776L89.344 188"/><path fill="#000" d="M40 153h12v7H40z"/><path fill="#000" stroke="#000" d="M71.357 160 56 151l25.357.818L96 160H71.357Z"/><path fill="#feafe8" stroke="#000" d="M6 125h111v30H6zm0-36h111v30H6z"/></svg>