<svg xmlns="http://www.w3.org/2000/svg" xmlns:xlink="http://www.w3.org/1999/xlink" fill="none" viewBox="0 0 56 72"><defs><path id="a" fill="#FFD9E7" d="M21.777 21.778v3.111h-3.11v-3.11z"/></defs><path fill="#88691A" fill-rule="evenodd" d="M15.556 3.111h9.333V0h-9.333v3.111ZM9.334 9.333h3.11V6.222h3.112v-3.11H9.333l.001 3.11H6.223v6.223h3.111V9.333Z" clip-rule="evenodd"/><path fill="#E8A700" fill-rule="evenodd" d="M9.333 12.445V9.334h6.223v6.222h3.111v3.111l3.111-.001h3.11v3.111h-9.332v-3.11h-3.112v-3.111H9.333v-3.11Z" clip-rule="evenodd"/><path fill="#FFC531" fill-rule="evenodd" d="M18.667 6.223V3.11h-3.111v3.112l-3.112-.001v3.111h3.112v6.223h3.111v3.111h6.222v-3.111H28v-3.112l-3.111.001V9.334l-3.11-.001V6.222h-3.112Z" clip-rule="evenodd"/><path fill="#FFE195" fill-rule="evenodd" d="M21.778 6.223h-3.111V3.11h6.222v3.112L28 6.222v6.223h-3.111V9.333h-3.112l.001-3.11Z" clip-rule="evenodd"/><path fill="#44E768" fill-rule="evenodd" d="M37.333 6.223h6.223V3.11h-6.223v3.112Zm-6.223 3.11V6.222H37.333l.001 3.111H31.11Zm.001 3.111V9.333H28v6.223h3.111v-3.112Zm18.667-9.333v3.112h-3.111V3.11h3.111Zm3.11 9.334V9.334h-3.11v3.111h3.11Z" clip-rule="evenodd"/><path fill="#14BC80" fill-rule="evenodd" d="M37.333 6.222h9.333v3.112h3.112v3.111h-9.334v3.11h-3.11v3.112H28v-3.111h3.11V9.334h3.112l3.111-.001V6.222Z" clip-rule="evenodd"/><path fill="#F0E4F6" fill-rule="evenodd" d="M3.111 15.556h6.223v3.111H6.223v3.111H3.11v-6.222Zm3.112 46.667V28h3.111v-6.222H6.223v3.112l-3.112-.001v40.444h3.112l3.11.001v3.111h34.223v-3.111l3.11-.001h3.111V24.889h-6.221V28h3.11v34.223l-3.111-.001v3.112H9.334l.001-3.112H6.223Zm15.554-37.334h9.334V28H15.555v-3.111h6.222Z" clip-rule="evenodd"/><path fill="#0E7E77" fill-rule="evenodd" d="M40.444 12.444h9.334v3.112H56v3.111h-3.111l-3.11-.001v3.111h-3.113l-3.11.001v3.112h-6.223v-9.334h3.111v-3.112Z" clip-rule="evenodd"/><path fill="#B90A4D" fill-rule="evenodd" d="M9.334 37.333v-3.111H6.223v9.334h3.111v-6.223Zm24.888.001v6.222H31.11v-3.11H28l-3.111-.002v6.223l-3.112-.001v3.111h-3.111V37.334h15.556Zm0 6.222h3.112v3.111h-3.111l-.001-3.111Zm6.222 15.555h-3.11V56h-3.111v6.223h6.221V59.11Zm3.112-12.444h-3.112v-6.223h6.222v6.223h-3.11ZM9.334 59.111H6.223V52.89h6.221v6.222h-3.11Z" clip-rule="evenodd"/><use xlink:href="#a"/><use xlink:href="#a"/><path fill="#FF478C" fill-rule="evenodd" d="M12.444 18.666h3.112v3.112h3.11v3.112H9.333v-3.113h-3.11v-3.111h6.221ZM9.333 28h37.333v12.445h-6.222v6.222h-3.111l.001-3.111h-3.112V37.333H18.666v-6.222H9.333l.001 3.112H6.223V28h3.11Zm24.889 24.89v-9.334H28v-3.112h-3.111v6.222h-3.112v3.112H9.334v-3.112H6.223v6.224h3.111l3.11-.001v9.334h3.112V59.11h3.11V52.89h3.111v-3.11l3.112-.002H28V56h3.111v-3.111h3.11Zm0 0 3.112-.001h3.11v-3.11h6.222v9.332h-9.333L37.334 56h-3.111l-.001-3.11Zm6.222-21.779v3.11l-3.11.002V31.11h3.11Zm-9.334 0H28v3.11l3.11.002V31.11Zm-6.221-9.333h-3.112v3.112h15.557v-6.224H28v3.112h-3.111Z" clip-rule="evenodd"/><path fill="#803" fill-rule="evenodd" d="M9.334 46.667v-3.111H6.223v3.111h3.111Zm24.889-.001h12.443v3.111h-9.332v3.113h-3.111v-6.224Zm0 6.224L34.222 56v6.223H15.555V59.11h3.111V52.89h3.111V56h9.333v-3.111h3.113Z" clip-rule="evenodd"/><path fill="#A87ABE" fill-rule="evenodd" d="M3.111 31.111H0v9.334h3.111v-9.334Zm15.555 31.11h-6.222v-3.11H6.223v3.112l3.11-.001v3.111h34.223v-3.11h3.11V59.11h-6.222v3.112l-3.11-.001H18.666Zm31.112-3.11h3.112v6.222h-3.112v-6.222Zm0 6.222v3.112h-3.112v-3.111l3.112-.001ZM0 43.556h3.111v3.111H0v-3.111Z" clip-rule="evenodd"/><path fill="#fff" fill-rule="evenodd" d="M12.445 15.556H9.334v3.111h3.111v-3.111Zm0 15.555H9.334v18.666h9.333V31.111h-6.222ZM24.89 15.556H28v3.111h-3.111v-3.111Zm-3.112 34.222H28V56h-6.223v-6.222Z" clip-rule="evenodd"/><path fill="#91789D" fill-rule="evenodd" d="M9.334 12.444v3.112H3.111v-3.112h6.223Zm-6.223 3.112v6.221l3.112.001v3.112H3.11v6.221H0V15.556h3.111Zm12.445 9.333V28H9.333v-3.111h6.223ZM9.334 65.334v3.111H3.111v-3.111h6.223Zm-6.223 0L0 65.333V46.666h3.111v18.668Zm9.333 3.11-3.11.001-.001 3.11h34.223v-3.11h3.11v-3.111h-3.111v3.11h-31.11ZM0 40.444h3.111v3.112H0v-3.112Zm52.89 3.112v-24.89h-3.112v3.112h-6.223v3.112l-3.11-.001H31.11V28h12.446l-.001-3.11h6.223V59.11h3.112V43.556Z" clip-rule="evenodd"/><path fill="#FFD9E7" fill-rule="evenodd" d="M28 21.777v-3.111h-3.111v3.111H28Zm3.111 12.446V31.11H28v3.112h3.111Zm9.333-3.112v3.112h-3.111V31.11h3.111Zm-9.333 12.445v-3.112H28v3.112h3.111Zm9.333 6.222v3.112h-3.111v-3.112h3.111ZM21.777 24.89v-3.112h-3.111v3.112h3.111Z" clip-rule="evenodd"/></svg>